<?xml version="1.0" encoding="UTF-8" standalone="no"?>
<!-- Created with Inkscape (http://www.inkscape.org/) -->

<svg
   xmlns:dc="http://purl.org/dc/elements/1.1/"
   xmlns:cc="http://creativecommons.org/ns#"
   xmlns:rdf="http://www.w3.org/1999/02/22-rdf-syntax-ns#"
   xmlns:svg="http://www.w3.org/2000/svg"
   xmlns="http://www.w3.org/2000/svg"
   xmlns:sodipodi="http://sodipodi.sourceforge.net/DTD/sodipodi-0.dtd"
   xmlns:inkscape="http://www.inkscape.org/namespaces/inkscape"
   width="580"
   height="220"
   viewBox="0 0 580 220"
   id="svg4398"
   version="1.1"
   inkscape:version="0.91 r13725"
   sodipodi:docname="Final_proposal.svg">
  <defs
     id="defs4400" />
  <sodipodi:namedview
     id="base"
     pagecolor="#ffffff"
     bordercolor="#666666"
     borderopacity="1.0"
     inkscape:pageopacity="0.0"
     inkscape:pageshadow="2"
     inkscape:zoom="1.6964286"
     inkscape:cx="280"
     inkscape:cy="110"
     inkscape:document-units="px"
     inkscape:current-layer="g7347"
     showgrid="false"
     units="px"
     inkscape:window-width="1536"
     inkscape:window-height="801"
     inkscape:window-x="-8"
     inkscape:window-y="-8"
     inkscape:window-maximized="1" />
  <metadata
     id="metadata4403">
    <rdf:RDF>
      <cc:Work
         rdf:about="">
        <dc:format>image/svg+xml</dc:format>
        <dc:type
           rdf:resource="http://purl.org/dc/dcmitype/StillImage" />
        <dc:title></dc:title>
      </cc:Work>
    </rdf:RDF>
  </metadata>
  <g
     inkscape:label="Calque 1"
     inkscape:groupmode="layer"
     id="layer1"
     transform="translate(0,-832.36214)">
    <g
       id="g7444"
       transform="matrix(1.7384422,0,0,1.7384422,218.43596,-1162.0431)">
      <g
         transform="translate(-0.58106766,-4.0674736)"
         id="g7347">
        <g
           id="g7387" />
        <g
           id="g5165"
           transform="translate(-6.2010806,462.19286)">
          <g
             id="text4136-5-7-8-4"
             style="font-style:normal;font-weight:normal;font-size:32.21807098px;line-height:125%;font-family:sans-serif;letter-spacing:0px;word-spacing:0px;fill:#000000;fill-opacity:1;stroke:none;stroke-width:1px;stroke-linecap:butt;stroke-linejoin:miter;stroke-opacity:1"
             transform="translate(1.4617681e-6,1.6257998e-5)">
            <path
               inkscape:connector-curvature="0"
               id="path5035"
               style="font-style:normal;font-variant:normal;font-weight:normal;font-stretch:normal;font-size:40.27259064px;line-height:125%;font-family:'Dream American Diner demo';-inkscape-font-specification:'Dream American Diner demo, Normal';text-align:start;writing-mode:lr-tb;text-anchor:start"
               d="m -67.343047,750.16295 q 0.771891,0.1678 0.805452,0.1678 1.912948,0.77189 2.953323,1.91295 0.805452,0.90613 1.208178,2.41635 0.469847,1.67803 0.268484,3.45673 -0.100682,0.90614 -0.402726,1.74515 -1.006815,2.98688 -1.476662,3.9937 -3.188247,6.84634 -9.329817,10.33663 -3.624533,2.08075 -6.242251,2.51704 -3.356049,0.60409 -7.718913,-0.13425 -3.456731,-0.57052 -7.416869,-2.85264 -4.195062,-2.38279 -6.611422,-2.95332 -0.36916,-0.0336 -0.5034,-0.0671 -0.50341,-0.13424 -0.50341,-0.57053 0,-0.50341 0.40273,-0.67121 2.98688,-1.2753 6.175127,-1.00681 1.577343,0.13424 2.886202,0.83901 1.778706,0.97325 4.530666,2.91976 1.745146,1.20818 2.852642,1.64446 6.644978,2.51704 13.256395,-2.95332 5.671723,-5.94021 6.879901,-11.44413 0.671209,-3.054 -0.03356,-4.73203 -0.839012,-1.98006 -2.483476,-2.44991 -0.906134,-0.26849 -3.590973,1.04037 -2.416355,1.14106 -3.356049,2.01363 -0.939694,0.80546 -1.443101,1.74515 -0.201363,0.36916 -0.872573,0.43629 -0.67121,0.10068 -0.570529,-0.53697 0.06712,-0.53697 0.302045,-1.77871 0.201363,-1.14106 0.302044,-1.7787 0.167803,-1.00682 0.906134,-1.94651 0.03356,-0.0336 4.966952,-4.96696 4.262183,-4.26218 5.772405,-6.77922 2.382795,-3.99369 1.141057,-5.67172 -1.912948,-2.5506 -6.980583,-0.67121 -4.564226,1.71159 -8.692167,5.70529 0.134242,0.20136 0.436286,0.60408 0.302045,0.43629 0.402726,0.57053 1.879388,2.61772 2.01363,5.83953 0.06712,1.6109 -0.771892,4.12794 -0.134241,0.3356 -0.369165,0.97325 -0.268484,0.70477 -0.369165,0.97326 -2.315674,6.67853 -2.68484,7.81959 -0.939693,2.85264 -1.40954,5.6046 0,0.10069 -0.302045,3.25537 -0.06712,0.50341 -0.234923,2.04719 -0.134242,1.4431 -0.167803,1.61091 -0.100681,0.60408 -0.805452,0.70477 -0.70477,0.10068 -0.939693,-0.53697 -1.778706,-4.39643 -1.577343,-3.92658 -0.234924,-0.67121 -1.141057,-2.31567 -0.805452,-1.47667 -1.006815,-2.31568 -0.234923,-1.00681 0.100682,-2.18143 1.006814,-3.32249 1.644464,-4.63135 0.302044,-0.60409 0.771891,-1.64446 0.570528,-1.17462 0.771891,-1.61091 2.349235,-4.96695 2.382795,-5.06763 2.080751,-4.79915 2.04719,-5.53748 -0.03356,-1.2753 -1.006815,-2.58416 -3.725214,2.04719 -10.202389,12.88723 -0.134242,0.33561 -0.369166,0.90613 -0.302044,0.67121 -0.402725,0.90614 -0.134242,0.36916 -0.604089,0.5034 -0.469847,0.10069 -0.805452,-0.1678 -0.302045,-0.23492 -0.167803,-0.53697 3.38961,-10.13526 13.390637,-18.99523 7.51755,-6.51074 13.692681,-6.87991 2.651278,-0.1678 5.537481,1.20818 1.812266,0.83901 2.617718,2.8862 0.805452,2.01363 0.268484,4.59779 -0.604089,2.78552 -1.845827,4.86627 -0.939694,1.61091 -2.382795,3.18825 -0.302044,0.3356 -3.893017,3.92658 z" />
            <path
               inkscape:connector-curvature="0"
               id="path5037"
               style="font-style:normal;font-variant:normal;font-weight:normal;font-stretch:normal;font-size:40.27259064px;line-height:125%;font-family:'Dream American Diner demo';-inkscape-font-specification:'Dream American Diner demo, Normal';text-align:start;writing-mode:lr-tb;text-anchor:start"
               d="m -37.698644,759.76125 q 0.503407,0.3356 -0.06712,1.24174 -8.289442,12.95435 -11.779733,12.95435 -1.040375,0 -2.08075,-1.34242 -0.906134,-1.20818 -0.906134,-2.08075 0,-0.13425 0,-0.23493 -3.523851,3.42317 -5.168316,3.42317 -1.40954,0 -2.651278,-1.07393 -1.845827,-1.57735 -1.845827,-3.49029 0,-5.36968 4.09438,-10.13527 4.933392,-5.73885 7.920276,-5.73885 1.476661,0 2.483476,2.08075 0.402726,0.7719 0.503408,1.37598 0.134241,1.14106 0.06712,1.07394 -1.812266,-1.57734 -4.497105,0.70477 -2.080751,1.77871 -4.161501,5.23544 -1.443102,2.75196 -1.98007,5.83952 -0.201362,1.00682 0.167803,1.57735 0.302044,0.46984 0.839012,0.46984 1.812267,0 4.832711,-3.62453 0.03356,-0.0336 0.06712,-0.0671 0.436286,-0.80545 1.141057,-2.61772 0.604089,-1.71159 1.241738,-3.08757 0.872573,-1.9465 1.37598,-3.52385 0.335605,0.10068 0.63765,0.26849 2.483476,1.30886 1.476661,4.96695 -0.268484,1.07394 -1.040375,2.85264 -0.70477,1.74515 -0.839012,2.18143 -0.268484,0.57053 -0.536968,1.37598 -0.268484,0.90614 -0.234924,0.83902 -0.268484,0.70477 0.134242,0.70477 0.839013,0 4.161501,-3.89302 3.288929,-3.96014 5.705284,-7.85316 0.436286,-0.70477 0.939694,-0.40272 z" />
            <path
               inkscape:connector-curvature="0"
               id="path5039"
               style="font-style:normal;font-variant:normal;font-weight:normal;font-stretch:normal;font-size:40.27259064px;line-height:125%;font-family:'Dream American Diner demo';-inkscape-font-specification:'Dream American Diner demo, Normal';text-align:start;writing-mode:lr-tb;text-anchor:start"
               d="m -21.738534,763.41934 q -0.06712,0.10068 -0.201363,0.26849 -5.805965,7.28262 -10.705797,11.0414 -1.174618,0.90613 -1.812267,0.90613 -0.503407,0 -1.208178,-0.40272 -0.70477,-0.36917 -1.308859,-1.04038 -0.570528,-0.67121 -0.939694,-1.57734 -0.469847,-1.1075 0.469847,-3.42317 0.704771,-1.77871 1.610904,-3.38961 0.570528,-1.04038 2.248553,-3.59098 0.302044,-0.46984 0.973254,-1.6109 0.604089,-1.04037 0.906133,-1.51022 -1.006814,0.26848 -3.490291,1.64446 -2.416355,1.37598 -3.356049,1.57735 -1.543783,0.36916 -1.745146,-1.14106 -0.234923,-1.81227 1.375981,-6.5443 0.302044,-0.80545 0.805451,-1.30886 0.369166,-0.30204 1.040376,-0.5034 0.604089,-0.13425 1.174617,0.0671 0.402726,0.13424 0.738331,0.70477 0.234923,0.40272 -0.503408,3.02044 -0.234923,0.80545 0.100682,1.07394 0.402726,0.3356 1.812266,-0.0336 2.751961,-0.73833 5.772405,-2.3828 1.241738,-0.83901 1.912948,-0.73833 0.469847,0.0336 1.711585,1.4431 0.369166,0.30205 0.469847,0.40273 0.201363,0.1678 0.201363,0.46985 l 0.03356,0.0336 q 0,0.0336 -0.03356,0.10068 -0.06712,1.54378 -5.168316,6.7121 -5.738844,5.7724 -6.477175,7.11482 -0.70477,1.34242 -0.469847,1.6109 0.704771,0.60409 1.980069,-0.0336 5.034074,-2.38279 8.088079,-5.83952 0.369165,-0.46985 0.70477,-0.87258 1.543783,-1.98006 2.785521,-3.96013 0.503408,-0.73833 1.073936,-0.40273 0.570528,0.33561 -0.100681,1.34242 -0.201363,0.33561 -0.469847,0.77189 z" />
            <path
               inkscape:connector-curvature="0"
               id="path5041"
               style="font-style:normal;font-variant:normal;font-weight:normal;font-stretch:normal;font-size:40.27259064px;line-height:125%;font-family:'Dream American Diner demo';-inkscape-font-specification:'Dream American Diner demo, Normal';text-align:start;writing-mode:lr-tb;text-anchor:start"
               d="m 21.06997,737.00723 q 0.604089,1.17462 1.107496,1.64447 2.114311,1.91295 3.557412,1.71158 1.510222,-0.10068 2.01363,-1.10749 0.436286,-0.87258 -0.03356,-1.87939 -0.268484,-0.40273 -1.073936,-0.80545 -1.073935,-0.57053 -3.725214,-0.10068 -0.234924,0.0336 -1.845827,0.53696 z m 1.040375,25.97583 q 0.167802,-0.13425 0.201363,-0.13425 2.315674,-2.78552 2.550597,-3.08756 4.597788,-6.57786 4.06082,-11.07496 -0.100682,-1.14106 -1.208178,-1.34242 -4.228622,0.90613 -5.671723,7.0477 -0.939694,3.92658 -0.570528,6.77922 0.167802,1.24174 0.637649,1.81227 z m -1.040375,1.00681 q -0.436287,-1.24174 -0.503408,-1.37598 -0.738331,-2.04719 -0.201363,-6.61142 0.738331,-6.17513 4.161501,-9.16201 2.04719,-1.91295 4.631348,-2.01363 1.946509,-0.10068 2.785521,0.57053 0.839012,0.67121 1.308859,2.24855 0.771892,2.5506 0.06712,6.7121 -1.241738,7.28263 -7.282626,12.6523 0.771891,0.67121 1.644464,0.83902 1.275298,0.26848 1.37598,0.26848 0.503407,0.0671 0.637649,0.20136 0.201363,0.16781 0.100682,0.80546 -0.268484,0.67121 -1.644464,0.36916 -1.678025,-0.36916 -3.054005,-1.20818 -1.946509,1.87939 -5.101195,3.8259 -6.275812,3.8259 -12.2831402,3.85946 -3.0204443,0.0336 -5.1011948,-1.37598 -2.88620237,-1.94651 -3.32248877,-6.24226 -0.40272593,-2.91976 0.40272591,-6.41005 1.04037526,-5.67172 4.69846886,-11.51125 4.7991504,-7.68535 12.685866,-12.61874 0.03356,0 0.369166,-0.20137 -0.335605,-0.73833 -0.369166,-0.77189 -1.912948,-5.06763 -4.698469,-7.08126 -0.201363,-0.13424 -0.503407,-0.33561 -0.369166,-0.20136 -0.469847,-0.30204 -0.637649,-0.40273 -0.570528,-0.80545 0.03356,-0.33561 0.671209,-0.63765 0.872573,-0.40273 2.449916,-0.10068 3.490292,0.97325 6.242252,7.41686 0.234923,0.63765 0.402726,0.67121 5.50392,-1.67802 7.987397,-0.30204 0.805452,0.30204 1.141057,1.2753 1.073935,2.5506 -0.704771,4.66491 -1.745145,2.08075 -4.79915,1.91295 -2.684839,-0.23493 -5.705284,-4.02726 -0.03356,0 -0.234923,-0.26849 -5.738844,3.08757 -10.8735997,10.8736 -6.2422515,9.39694 -4.5642269,17.38434 0.6040889,2.58415 2.9868838,3.15468 3.7587751,0.80546 9.5647398,-2.41635 4.262183,-2.31568 5.671724,-3.92658 z" />
            <path
               inkscape:connector-curvature="0"
               id="path5043"
               style="font-style:normal;font-variant:normal;font-weight:normal;font-stretch:normal;font-size:40.27259064px;line-height:125%;font-family:'Dream American Diner demo';-inkscape-font-specification:'Dream American Diner demo, Normal';text-align:start;writing-mode:lr-tb;text-anchor:start"
               d="m 59.876385,760.16397 q 0.469847,-0.73833 1.006815,-0.73833 0.536968,-0.0336 0.234924,0.9397 -1.107497,3.28893 -5.571042,8.05452 -0.268484,0.26848 -1.34242,1.47666 -0.805452,0.87257 -1.275299,1.34242 -1.174617,1.14105 -2.147871,1.87938 -0.805452,0.63765 -1.34242,0.73833 -2.651279,0.50341 -3.356049,-1.67802 -0.436286,-1.30886 -0.134242,-3.02044 0.335605,-1.71159 5.000513,-8.82641 -0.469846,0.20136 -1.476661,1.00681 -1.006815,0.80545 -2.315674,1.98007 -1.34242,1.20818 -2.751961,2.5506 -1.40954,1.37598 -2.684839,2.65128 -0.536968,0.53696 -1.745145,2.55059 -1.409541,2.31568 -1.275299,2.11432 -0.604089,0.80545 -1.040375,0.6712 -0.436287,-0.1678 -0.67121,-0.70477 -1.174618,-2.81908 -0.939694,-3.18824 0.167802,-0.26849 0.67121,-0.9397 0.503407,-0.70477 1.208177,-1.71158 3.322489,-4.76559 4.396425,-6.41006 0.604089,-0.87257 0.973254,-1.51022 -1.980069,1.67803 -4.195061,3.75878 -0.100682,0.10068 -6.879901,7.78603 -1.476662,1.71159 -2.114311,2.68484 -0.234924,0.40273 -0.67121,0.26849 -0.436286,-0.13425 -0.805452,-0.53697 -0.06712,-0.0671 -0.134242,-0.20137 -1.37598,-1.30885 -1.812266,-2.81908 -0.03356,-0.1678 7.081263,-11.88041 2.147872,-3.52385 3.557413,-6.07445 1.342419,0.53697 1.778706,3.38961 0.302044,2.01363 -2.349235,6.00733 -0.436286,0.80545 -1.107496,1.94651 -0.70477,1.17461 -0.839012,1.40954 0.637649,-0.77189 1.610903,-1.94651 0.973255,-1.14106 2.01363,-2.34924 0.973254,-1.14105 2.114311,-2.41635 1.073936,-1.20818 2.04719,-2.14787 0.973254,-0.97326 1.745145,-1.61091 0.771892,-0.67121 1.174618,-0.77189 0.604089,-0.13424 1.107496,0.26849 0.536968,0.40272 0.839012,1.07393 0.302045,0.63765 0.436287,1.30886 0.100681,0.63765 -0.03356,1.00682 -0.167802,0.3356 -0.973254,1.6109 -0.839012,1.2753 -1.778706,2.68484 -1.141057,1.67802 -2.483477,3.59097 2.953324,-3.28893 5.4368,-6.04089 1.040375,-1.10749 2.080751,-2.21499 0.973254,-1.04037 1.912948,-2.01363 0.872572,-0.90613 1.510222,-1.47666 0.637649,-0.60409 0.872573,-0.70477 0.536968,-0.20136 1.040375,0.20136 0.503407,0.36917 0.872573,1.00682 0.335605,0.63765 0.402726,1.34242 0.03356,0.73833 -0.302045,1.24173 -0.369165,0.43629 -1.141057,1.57735 -0.771891,1.10749 -1.678024,2.55059 -0.939694,1.44311 -1.879388,2.98689 -0.939694,1.57734 -1.644464,2.95332 -0.70477,1.34242 -1.107496,2.31568 -0.335605,0.83901 -0.268484,1.4431 0.100681,0.97325 0.771891,0.63765 2.550598,-1.20818 6.410054,-5.63817 1.980069,-2.24855 3.960138,-5.4368 z" />
            <path
               inkscape:connector-curvature="0"
               id="path5045"
               style="font-style:normal;font-variant:normal;font-weight:normal;font-stretch:normal;font-size:40.27259064px;line-height:125%;font-family:'Dream American Diner demo';-inkscape-font-specification:'Dream American Diner demo, Normal';text-align:start;writing-mode:lr-tb;text-anchor:start"
               d="m 80.995375,759.76125 q 0.503408,0.3356 -0.06712,1.24174 -8.289441,12.95435 -11.779733,12.95435 -1.040375,0 -2.08075,-1.34242 -0.906133,-1.20818 -0.906133,-2.08075 0,-0.13425 0,-0.23493 -3.523852,3.42317 -5.168316,3.42317 -1.409541,0 -2.651279,-1.07393 -1.845827,-1.57735 -1.845827,-3.49029 0,-5.36968 4.09438,-10.13527 4.933392,-5.73885 7.920276,-5.73885 1.476662,0 2.483476,2.08075 0.402726,0.7719 0.503408,1.37598 0.134242,1.14106 0.06712,1.07394 -1.812267,-1.57734 -4.497106,0.70477 -2.080751,1.77871 -4.161501,5.23544 -1.443101,2.75196 -1.980069,5.83952 -0.201363,1.00682 0.167802,1.57735 0.302045,0.46984 0.839013,0.46984 1.812266,0 4.83271,-3.62453 0.03356,-0.0336 0.06712,-0.0671 0.436287,-0.80545 1.141057,-2.61772 0.604089,-1.71159 1.241738,-3.08757 0.872573,-1.9465 1.375981,-3.52385 0.335604,0.10068 0.637649,0.26849 2.483476,1.30886 1.476662,4.96695 -0.268484,1.07394 -1.040376,2.85264 -0.70477,1.74515 -0.839012,2.18143 -0.268484,0.57053 -0.536968,1.37598 -0.268484,0.90614 -0.234923,0.83902 -0.268484,0.70477 0.134242,0.70477 0.839012,0 4.161501,-3.89302 3.288928,-3.96014 5.705283,-7.85316 0.436287,-0.70477 0.939694,-0.40272 z" />
            <path
               inkscape:connector-curvature="0"
               id="path5047"
               style="font-style:normal;font-variant:normal;font-weight:normal;font-stretch:normal;font-size:40.27259064px;line-height:125%;font-family:'Dream American Diner demo';-inkscape-font-specification:'Dream American Diner demo, Normal';text-align:start;writing-mode:lr-tb;text-anchor:start"
               d="m 90.821265,746.53841 q 8.927091,0.9397 12.148895,0.10069 -0.1678,1.98006 -0.67121,2.55059 -1.30886,1.34242 -3.456727,1.87939 -2.483477,0.63765 -6.611417,0.13424 -0.503408,-0.0336 -1.543783,-0.1678 -1.040375,-0.10068 -1.610903,-0.1678 -1.845827,3.92658 -6.040889,10.8736 -3.658094,6.07445 -3.792336,6.67854 -0.70477,1.37598 -0.839012,2.55059 -0.134242,0.80545 0.536968,0.9397 0.70477,0.13424 4.127941,-3.89302 3.288928,-3.96014 5.738844,-7.85316 0.436286,-0.70477 0.939693,-0.40272 0.469847,0.3356 -0.06712,1.24174 -8.289441,12.95435 -11.813293,12.95435 -1.006815,0 -2.04719,-1.34242 -1.141057,-1.51023 -0.738331,-3.42317 0.302045,-1.24174 1.543783,-3.32249 1.543783,-2.58416 3.456731,-6.20869 2.349234,-4.46355 4.732029,-9.53118 -2.114311,-0.57053 -3.456731,-1.51023 -0.771891,-0.53696 -1.342419,-1.4431 -0.536968,-0.83901 -0.335605,-0.80545 -0.503408,-0.10068 6.879901,-0.10068 l 0.201363,-0.40273 q 1.510222,-3.35604 2.517037,-5.80596 1.241738,0.46985 1.879387,3.25537 0.268484,1.14105 -0.335605,3.2218 z" />
            <path
               inkscape:connector-curvature="0"
               id="path5049"
               style="font-style:normal;font-variant:normal;font-weight:normal;font-stretch:normal;font-size:40.27259064px;line-height:125%;font-family:'Dream American Diner demo';-inkscape-font-specification:'Dream American Diner demo, Normal';text-align:start;writing-mode:lr-tb;text-anchor:start"
               d="m 98.480394,761.43927 q 0.570528,-0.26848 0.906133,-0.26848 0.335605,0 0.369166,0.26848 0.03356,0.30205 -0.402726,0.80545 -0.234924,0.23493 -1.006815,1.20818 -0.70477,0.90614 -1.845827,2.24856 -1.073936,1.27529 -2.349235,2.75196 -1.275298,1.4431 -2.483476,2.68484 -1.208178,1.20817 -2.248553,2.01362 -1.040375,0.80546 -1.644464,0.80546 -0.637649,0 -1.241738,-0.36917 -0.63765,-0.3356 -1.141057,-0.93969 -0.536968,-0.60409 -0.872573,-1.40954 -0.335605,-0.80546 -0.335605,-1.77871 0,-0.97325 0.570529,-2.41635 0.570528,-1.47667 1.443101,-3.08757 0.872573,-1.64446 1.912948,-3.25537 1.040375,-1.64446 2.04719,-3.054 0.939694,-1.37598 1.711585,-2.31568 0.738331,-0.93969 0.939694,-1.14105 0.436286,-0.30205 1.040375,-0.16781 0.604089,0.13425 1.107496,0.50341 0.973255,0.70477 1.308859,1.00682 1.040376,0.93969 -3.288928,6.37649 -5.604602,7.01414 -5.940207,7.65179 -0.637649,1.24174 -0.436286,1.47666 0.503407,0.43629 1.40954,-0.0671 2.517037,-1.40954 6.644978,-5.57104 4.027259,-4.06082 3.825896,-3.96014 z m -3.121126,-9.22913 q -0.369165,-0.57053 -0.268484,-1.2753 0.134242,-0.73833 0.536968,-1.4431 0.436287,-0.67121 1.107496,-1.24174 0.63765,-0.53697 1.34242,-0.80545 0.70477,-0.30205 1.37598,-0.20137 0.671212,0.10069 1.174622,0.7719 0.46984,0.70477 0.40272,1.40954 -0.10068,0.70477 -0.60409,1.34242 -0.503405,0.63765 -1.241736,1.10749 -0.738331,0.46985 -1.510222,0.73833 -0.738331,0.26849 -1.409541,0.16781 -0.637649,-0.0671 -0.906133,-0.57053 z" />
            <path
               inkscape:connector-curvature="0"
               id="path5051"
               style="font-style:normal;font-variant:normal;font-weight:normal;font-stretch:normal;font-size:40.27259064px;line-height:125%;font-family:'Dream American Diner demo';-inkscape-font-specification:'Dream American Diner demo, Normal';text-align:start;writing-mode:lr-tb;text-anchor:start"
               d="m 102.6828,761.57351 q -0.67121,1.34242 -1.94651,4.46355 -0.36916,0.83901 -0.43629,2.5506 -0.0671,1.17461 0.53697,1.91295 0.63765,0.77189 1.81227,0.46984 1.00681,-0.23492 1.91295,-0.97325 1.57734,-1.34242 3.28892,-3.12113 4.16151,-4.39642 4.89984,-6.14157 0.57053,-1.2753 1.20817,-0.97325 1.07394,0.50341 -4.59778,7.11482 -2.31568,2.7184 -2.85264,3.25537 -1.74515,1.67802 -2.88621,2.58416 -1.10749,0.87257 -2.75196,1.20818 -0.906131,0.1678 -1.778704,-0.33561 -1.543782,-0.83901 -1.812266,-1.20818 -2.986884,-4.19506 0.469847,-10.57155 1.879387,-3.45673 4.799153,-6.3765 1.2753,-1.27529 2.78552,-1.87938 2.28211,-0.9397 3.55741,0.63765 2.11431,2.55059 1.71159,5.16831 -0.13425,1.00682 -1.24174,2.31568 -1.17462,1.4431 -1.61091,2.18143 -0.77189,1.2753 -0.77189,1.2753 -0.83901,0.26848 -1.34242,-0.83902 -0.30204,-0.67121 -0.36916,-1.37598 -0.0336,-0.5034 0.13424,-0.80545 0.87257,-1.64446 0.90613,-2.21499 0.0671,-0.83901 -0.43628,-1.71158 -0.50341,-0.90614 -0.83902,-0.53697 -0.67121,0.67121 -2.34923,3.92657 z" />
          </g>
          <path
             style="fill:#000000;fill-rule:evenodd;stroke:#000000;stroke-width:1.18238914;stroke-linecap:butt;stroke-linejoin:miter;stroke-miterlimit:4;stroke-dasharray:none;stroke-opacity:1"
             d="m 194.12942,746.63033 c -1.57624,75.43559 -76.70198,38.36543 -148.129981,38.1816 -73.190082,-0.1884 -144.059444,24.53929 -144.059444,24.53929 0,0 69.989022,-26.48879 143.179102,-26.30041 71.427993,0.18384 150.866573,38.97315 152.442813,-36.46244 2.22654,-106.5576 -64.22364,-13.50856 -64.22364,-13.50856 0,0 63.0177,-93.00707 60.79115,13.55052 z"
             id="path4841-8-4-89-8"
             inkscape:connector-curvature="0"
             sodipodi:nodetypes="sscsscs"
             transform="translate(1.4617681e-6,1.6257998e-5)" />
          <path
             d="m 155.10969,725.17662 a 0.90404268,0.90404268 0 0 1 -0.90404,0.90405 0.90404268,0.90404268 0 0 1 -0.90404,-0.90405 0.90404268,0.90404268 0 0 1 0.90404,-0.90404 0.90404268,0.90404268 0 0 1 0.90404,0.90404 z"
             id="circle5925-9-2-2"
             inkscape:connector-curvature="0"
             transform="translate(1.4617681e-6,1.6257998e-5)" />
          <path
             d="m 157.13899,723.64949 a 0.90404268,0.90404268 0 0 1 -0.90404,0.90404 0.90404268,0.90404268 0 0 1 -0.90404,-0.90404 0.90404268,0.90404268 0 0 1 0.90404,-0.90405 0.90404268,0.90404268 0 0 1 0.90404,0.90405 z"
             id="circle5927-3-0-2"
             inkscape:connector-curvature="0"
             transform="translate(1.4617681e-6,1.6257998e-5)" />
          <path
             d="m 159.16903,725.17662 a 0.90404268,0.90404268 0 0 1 -0.90404,0.90405 0.90404268,0.90404268 0 0 1 -0.90404,-0.90405 0.90404268,0.90404268 0 0 1 0.90404,-0.90404 0.90404268,0.90404268 0 0 1 0.90404,0.90404 z"
             id="circle5929-0-6-8"
             inkscape:connector-curvature="0"
             transform="translate(1.4617681e-6,1.6257998e-5)" />
          <path
             d="m 161.1976,723.64949 a 0.90404268,0.90404268 0 0 1 -0.90404,0.90404 0.90404268,0.90404268 0 0 1 -0.90404,-0.90404 0.90404268,0.90404268 0 0 1 0.90404,-0.90405 0.90404268,0.90404268 0 0 1 0.90404,0.90405 z"
             id="circle5931-4-9-0"
             inkscape:connector-curvature="0"
             transform="translate(1.4617681e-6,1.6257998e-5)" />
          <path
             d="m 163.22764,725.17662 a 0.90404268,0.90404268 0 0 1 -0.90404,0.90405 0.90404268,0.90404268 0 0 1 -0.90404,-0.90405 0.90404268,0.90404268 0 0 1 0.90404,-0.90404 0.90404268,0.90404268 0 0 1 0.90404,0.90404 z"
             id="circle5933-9-5-5"
             inkscape:connector-curvature="0"
             transform="translate(1.4617681e-6,1.6257998e-5)" />
          <path
             d="m 159.16903,734.20304 a 0.90404268,0.90404268 0 0 1 -0.90404,0.90404 0.90404268,0.90404268 0 0 1 -0.90404,-0.90404 0.90404268,0.90404268 0 0 1 0.90404,-0.90404 0.90404268,0.90404268 0 0 1 0.90404,0.90404 z"
             id="circle5935-0-6-4"
             inkscape:connector-curvature="0"
             transform="translate(1.4617681e-6,1.6257998e-5)" />
          <path
             d="m 161.1976,732.6759 a 0.90404268,0.90404268 0 0 1 -0.90404,0.90404 0.90404268,0.90404268 0 0 1 -0.90404,-0.90404 0.90404268,0.90404268 0 0 1 0.90404,-0.90404 0.90404268,0.90404268 0 0 1 0.90404,0.90404 z"
             id="circle5937-4-9-2"
             inkscape:connector-curvature="0"
             transform="translate(1.4617681e-6,1.6257998e-5)" />
          <path
             d="m 163.22764,731.14876 a 0.90404268,0.90404268 0 0 1 -0.90404,0.90405 0.90404268,0.90404268 0 0 1 -0.90404,-0.90405 0.90404268,0.90404268 0 0 1 0.90404,-0.90404 0.90404268,0.90404268 0 0 1 0.90404,0.90404 z"
             id="circle5939-5-8-6"
             inkscape:connector-curvature="0"
             transform="translate(1.4617681e-6,1.6257998e-5)" />
          <path
             d="m 161.19686,729.54715 a 0.90404268,0.90404268 0 0 1 -0.90404,0.90404 0.90404268,0.90404268 0 0 1 -0.90405,-0.90404 0.90404268,0.90404268 0 0 1 0.90405,-0.90405 0.90404268,0.90404268 0 0 1 0.90404,0.90405 z"
             id="circle5941-7-7-4"
             inkscape:connector-curvature="0"
             transform="translate(1.4617681e-6,1.6257998e-5)" />
          <path
             d="m 161.19686,726.49287 a 0.90404268,0.90404268 0 0 1 -0.90404,0.90404 0.90404268,0.90404268 0 0 1 -0.90405,-0.90404 0.90404268,0.90404268 0 0 1 0.90405,-0.90404 0.90404268,0.90404268 0 0 1 0.90404,0.90404 z"
             id="circle5943-9-5-7"
             inkscape:connector-curvature="0"
             transform="translate(1.4617681e-6,1.6257998e-5)" />
          <path
             d="m 163.22617,728.02001 a 0.90404268,0.90404268 0 0 1 -0.90404,0.90404 0.90404268,0.90404268 0 0 1 -0.90405,-0.90404 0.90404268,0.90404268 0 0 1 0.90405,-0.90404 0.90404268,0.90404268 0 0 1 0.90404,0.90404 z"
             id="circle5945-0-8-2"
             inkscape:connector-curvature="0"
             transform="translate(1.4617681e-6,1.6257998e-5)" />
          <path
             d="m 143.85266,739.11186 a 0.90404268,0.90404268 0 0 1 -0.90404,0.90404 0.90404268,0.90404268 0 0 1 -0.90404,-0.90404 0.90404268,0.90404268 0 0 1 0.90404,-0.90404 0.90404268,0.90404268 0 0 1 0.90404,0.90404 z"
             id="circle5947-1-1-1"
             inkscape:connector-curvature="0"
             transform="translate(1.4617681e-6,1.6257998e-5)" />
          <path
             d="m 145.88049,740.42811 a 0.90404268,0.90404268 0 0 1 -0.90404,0.90404 0.90404268,0.90404268 0 0 1 -0.90404,-0.90404 0.90404268,0.90404268 0 0 1 0.90404,-0.90405 0.90404268,0.90404268 0 0 1 0.90404,0.90405 z"
             id="circle5949-7-8-4"
             inkscape:connector-curvature="0"
             transform="translate(1.4617681e-6,1.6257998e-5)" />
          <path
             d="m 143.64029,741.95524 a 0.90404268,0.90404268 0 0 1 -0.90404,0.90405 0.90404268,0.90404268 0 0 1 -0.90404,-0.90405 0.90404268,0.90404268 0 0 1 0.90404,-0.90404 0.90404268,0.90404268 0 0 1 0.90404,0.90404 z"
             id="circle5951-7-4-3"
             inkscape:connector-curvature="0"
             transform="translate(1.4617681e-6,1.6257998e-5)" />
          <path
             d="m 131.68053,739.11186 a 0.90404268,0.90404268 0 0 1 -0.90404,0.90404 0.90404268,0.90404268 0 0 1 -0.90404,-0.90404 0.90404268,0.90404268 0 0 1 0.90404,-0.90404 0.90404268,0.90404268 0 0 1 0.90404,0.90404 z"
             id="circle5953-0-5-6"
             inkscape:connector-curvature="0"
             transform="translate(1.4617681e-6,1.6257998e-5)" />
          <path
             d="m 135.7384,739.11186 a 0.90404268,0.90404268 0 0 1 -0.90404,0.90404 0.90404268,0.90404268 0 0 1 -0.90404,-0.90404 0.90404268,0.90404268 0 0 1 0.90404,-0.90404 0.90404268,0.90404268 0 0 1 0.90404,0.90404 z"
             id="circle5955-2-2-1"
             inkscape:connector-curvature="0"
             transform="translate(1.4617681e-6,1.6257998e-5)" />
          <path
             d="m 139.79701,739.11186 a 0.90404268,0.90404268 0 0 1 -0.90405,0.90404 0.90404268,0.90404268 0 0 1 -0.90404,-0.90404 0.90404268,0.90404268 0 0 1 0.90404,-0.90404 0.90404268,0.90404268 0 0 1 0.90405,0.90404 z"
             id="circle5957-2-2-0"
             inkscape:connector-curvature="0"
             transform="translate(1.4617681e-6,1.6257998e-5)" />
          <path
             d="m 135.7384,748.13901 a 0.90404268,0.90404268 0 0 1 -0.90404,0.90405 0.90404268,0.90404268 0 0 1 -0.90404,-0.90405 0.90404268,0.90404268 0 0 1 0.90404,-0.90404 0.90404268,0.90404268 0 0 1 0.90404,0.90404 z"
             id="circle5959-2-4-1"
             inkscape:connector-curvature="0"
             transform="translate(1.4617681e-6,1.6257998e-5)" />
          <path
             d="m 135.7384,745.08473 a 0.90404268,0.90404268 0 0 1 -0.90404,0.90405 0.90404268,0.90404268 0 0 1 -0.90404,-0.90405 0.90404268,0.90404268 0 0 1 0.90404,-0.90404 0.90404268,0.90404268 0 0 1 0.90404,0.90404 z"
             id="circle5961-1-2-2"
             inkscape:connector-curvature="0"
             transform="translate(1.4617681e-6,1.6257998e-5)" />
          <path
             d="m 137.76771,746.61188 a 0.90404268,0.90404268 0 0 1 -0.90405,0.90404 0.90404268,0.90404268 0 0 1 -0.90404,-0.90404 0.90404268,0.90404268 0 0 1 0.90404,-0.90405 0.90404268,0.90404268 0 0 1 0.90405,0.90405 z"
             id="circle5963-3-6-4"
             inkscape:connector-curvature="0"
             transform="translate(1.4617681e-6,1.6257998e-5)" />
          <path
             d="m 139.79701,748.13901 a 0.90404268,0.90404268 0 0 1 -0.90405,0.90405 0.90404268,0.90404268 0 0 1 -0.90404,-0.90405 0.90404268,0.90404268 0 0 1 0.90404,-0.90404 0.90404268,0.90404268 0 0 1 0.90405,0.90404 z"
             id="circle5965-0-3-7"
             inkscape:connector-curvature="0"
             transform="translate(1.4617681e-6,1.6257998e-5)" />
          <path
             d="m 139.79701,745.08473 a 0.90404268,0.90404268 0 0 1 -0.90405,0.90405 0.90404268,0.90404268 0 0 1 -0.90404,-0.90405 0.90404268,0.90404268 0 0 1 0.90404,-0.90404 0.90404268,0.90404268 0 0 1 0.90405,0.90404 z"
             id="circle5967-1-8-7"
             inkscape:connector-curvature="0"
             transform="translate(1.4617681e-6,1.6257998e-5)" />
          <path
             d="m 141.82557,746.61188 a 0.90404268,0.90404268 0 0 1 -0.90404,0.90404 0.90404268,0.90404268 0 0 1 -0.90404,-0.90404 0.90404268,0.90404268 0 0 1 0.90404,-0.90405 0.90404268,0.90404268 0 0 1 0.90404,0.90405 z"
             id="circle5969-1-5-6"
             inkscape:connector-curvature="0"
             transform="translate(1.4617681e-6,1.6257998e-5)" />
          <path
             d="m 131.67832,741.95524 a 0.90404268,0.90404268 0 0 1 -0.90404,0.90405 0.90404268,0.90404268 0 0 1 -0.90404,-0.90405 0.90404268,0.90404268 0 0 1 0.90404,-0.90404 0.90404268,0.90404268 0 0 1 0.90404,0.90404 z"
             id="circle5971-5-2-5"
             inkscape:connector-curvature="0"
             transform="translate(1.4617681e-6,1.6257998e-5)" />
          <path
             d="m 133.70762,743.48238 a 0.90404268,0.90404268 0 0 1 -0.90404,0.90404 0.90404268,0.90404268 0 0 1 -0.90404,-0.90404 0.90404268,0.90404268 0 0 1 0.90404,-0.90404 0.90404268,0.90404268 0 0 1 0.90404,0.90404 z"
             id="circle5973-2-2-1"
             inkscape:connector-curvature="0"
             transform="translate(1.4617681e-6,1.6257998e-5)" />
          <path
             d="m 133.70762,740.42811 a 0.90404268,0.90404268 0 0 1 -0.90404,0.90404 0.90404268,0.90404268 0 0 1 -0.90404,-0.90404 0.90404268,0.90404268 0 0 1 0.90404,-0.90405 0.90404268,0.90404268 0 0 1 0.90404,0.90405 z"
             id="circle5975-2-7-1"
             inkscape:connector-curvature="0"
             transform="translate(1.4617681e-6,1.6257998e-5)" />
          <path
             d="m 135.73619,741.95524 a 0.90404268,0.90404268 0 0 1 -0.90404,0.90405 0.90404268,0.90404268 0 0 1 -0.90405,-0.90405 0.90404268,0.90404268 0 0 1 0.90405,-0.90404 0.90404268,0.90404268 0 0 1 0.90404,0.90404 z"
             id="circle5977-6-0-8"
             inkscape:connector-curvature="0"
             transform="translate(1.4617681e-6,1.6257998e-5)" />
          <path
             d="m 137.76549,743.48238 a 0.90404268,0.90404268 0 0 1 -0.90404,0.90404 0.90404268,0.90404268 0 0 1 -0.90404,-0.90404 0.90404268,0.90404268 0 0 1 0.90404,-0.90404 0.90404268,0.90404268 0 0 1 0.90404,0.90404 z"
             id="circle5979-8-9-8"
             inkscape:connector-curvature="0"
             transform="translate(1.4617681e-6,1.6257998e-5)" />
          <path
             d="m 137.76549,740.42811 a 0.90404268,0.90404268 0 0 1 -0.90404,0.90404 0.90404268,0.90404268 0 0 1 -0.90404,-0.90404 0.90404268,0.90404268 0 0 1 0.90404,-0.90405 0.90404268,0.90404268 0 0 1 0.90404,0.90405 z"
             id="circle5981-2-9-0"
             inkscape:connector-curvature="0"
             transform="translate(1.4617681e-6,1.6257998e-5)" />
          <path
             d="m 139.79553,741.95524 a 0.90404268,0.90404268 0 0 1 -0.90404,0.90405 0.90404268,0.90404268 0 0 1 -0.90404,-0.90405 0.90404268,0.90404268 0 0 1 0.90404,-0.90404 0.90404268,0.90404268 0 0 1 0.90404,0.90404 z"
             id="circle5983-6-3-5"
             inkscape:connector-curvature="0"
             transform="translate(1.4617681e-6,1.6257998e-5)" />
          <path
             d="m 141.82484,743.48238 a 0.90404268,0.90404268 0 0 1 -0.90405,0.90404 0.90404268,0.90404268 0 0 1 -0.90404,-0.90404 0.90404268,0.90404268 0 0 1 0.90404,-0.90404 0.90404268,0.90404268 0 0 1 0.90405,0.90404 z"
             id="circle5985-1-8-8"
             inkscape:connector-curvature="0"
             transform="translate(1.4617681e-6,1.6257998e-5)" />
          <path
             d="m 141.82484,740.42811 a 0.90404268,0.90404268 0 0 1 -0.90405,0.90404 0.90404268,0.90404268 0 0 1 -0.90404,-0.90404 0.90404268,0.90404268 0 0 1 0.90404,-0.90405 0.90404268,0.90404268 0 0 1 0.90405,0.90405 z"
             id="circle5987-6-4-0"
             inkscape:connector-curvature="0"
             transform="translate(1.4617681e-6,1.6257998e-5)" />
          <path
             d="m 137.76549,749.68459 a 0.90404268,0.90404268 0 0 1 -0.90404,0.90404 0.90404268,0.90404268 0 0 1 -0.90404,-0.90404 0.90404268,0.90404268 0 0 1 0.90404,-0.90404 0.90404268,0.90404268 0 0 1 0.90404,0.90404 z"
             id="circle5989-2-2-5"
             inkscape:connector-curvature="0"
             transform="translate(1.4617681e-6,1.6257998e-5)" />
          <path
             sodipodi:nodetypes="scsssscccsscsscccccssssssccssccssccssccsccssccssccssssccsscccsccsccsccsccsccsccccsscccssccccsccsscccssccsscccsscscsssccssscccsccssccsscscsssccsscscssccssccsccc"
             style="fill:#000000;stroke:none"
             id="path5991-7-4-7"
             d="m 157.18471,718.22818 c -5.24949,0 -9.58462,3.95611 -10.20034,9.0419 l -14.40643,0 c -28.21388,0 17.62186,-7.4e-4 -3.12802,-7.4e-4 l -12.47593,0 c -0.56042,0 -1.07217,0.31708 -1.32141,0.81925 -0.24924,0.50216 -0.19246,1.10166 0.14674,1.54778 l 20.0401,26.39569 0,13.87698 c -8.70638,0.51396 -13.25757,5.48251 -13.25757,8.21676 0,0.81408 0.66071,1.47478 1.47479,1.47478 l 26.51367,0 0.0147,0 c 0.81408,0 1.47479,-0.6607 1.47479,-1.47478 0,-0.10766 -0.0118,-0.21384 -0.0339,-0.31487 -0.32519,-2.78439 -4.85499,-7.40931 -13.23766,-7.90336 l 0,-13.87551 13.82905,-18.21285 c 0.031,-0.0214 0.0582,-0.0487 0.0877,-0.0723 1.39145,0.67471 2.92449,1.04562 4.48039,1.04562 5.66981,0 10.28219,-4.61239 10.28219,-10.2822 0,-5.6698 -4.61312,-10.28219 -10.28293,-10.28219 z m -10.17675,19.97964 c -0.49995,0 -0.90404,0.40483 -0.90404,0.90478 0,0.49921 0.40409,0.90404 0.90404,0.90404 0.0995,0 0.19173,-0.0273 0.28095,-0.0568 l -2.03151,2.676 c -0.09,-0.0302 -0.1814,-0.0568 -0.28095,-0.0568 -0.49995,0 -0.90404,0.40556 -0.90404,0.90478 0,0.18656 0.0701,0.34952 0.16665,0.49331 l -0.51249,0.67545 c -0.15412,-0.27652 -0.43875,-0.47119 -0.77795,-0.47119 -0.49921,0 -0.9033,0.40557 -0.9033,0.90478 0,0.42621 0.30085,0.76689 0.69757,0.86201 l -3.41044,4.49219 c -0.13199,-0.076 -0.27726,-0.13125 -0.4417,-0.13125 -0.49921,0 -0.9033,0.40409 -0.9033,0.9033 0,0.25293 0.10397,0.48005 0.26988,0.64375 l -0.52944,0.69757 c -0.0885,-0.40704 -0.43285,-0.71822 -0.86644,-0.71822 -0.15338,0 -0.29127,0.0479 -0.41736,0.11503 l -3.40307,-4.48187 c 0.38197,-0.10618 0.66808,-0.44022 0.66808,-0.85611 0,-0.49921 -0.40483,-0.90404 -0.90404,-0.90404 -0.32814,0 -0.60319,0.18435 -0.76173,0.44538 l -0.48594,-0.64079 c 0.0708,-0.12904 0.12241,-0.26988 0.12241,-0.42842 0,-0.49922 -0.40483,-0.90478 -0.90331,-0.90478 -0.0708,0 -0.13421,0.0251 -0.19983,0.0405 l -2.31394,-3.0469 c 0.14158,0.0922 0.30086,0.15854 0.48226,0.15854 0.49921,0 0.90404,-0.40483 0.90404,-0.90404 0,-0.49922 -0.40483,-0.90478 -0.90404,-0.90478 -0.49922,0 -0.90405,0.40556 -0.90405,0.90478 0,0.0914 0.0273,0.17402 0.0524,0.25735 l -0.65112,-0.85759 c 0.22417,-0.16444 0.37976,-0.41663 0.37976,-0.71601 0,-0.49995 -0.40483,-0.90478 -0.90331,-0.90478 -0.21163,0 -0.39745,0.0833 -0.55083,0.205 l -0.25809,-0.3392 2.09641,0 c 0.16222,0.24481 0.42621,0.41515 0.74181,0.41515 0.31487,0 0.57886,-0.17108 0.74035,-0.41515 l 2.57718,0 c 0.16149,0.24481 0.42621,0.41515 0.74108,0.41515 0.31487,0 0.57959,-0.17108 0.74108,-0.41515 l 0.3274,0 c 0.1519,0.0516 0.30971,0.0833 0.47341,0.0833 0.16149,0 0.32445,-0.0273 0.4852,-0.0833 l 1.29044,0 c 0.16149,0.24481 0.42621,0.41515 0.74108,0.41515 0.31486,0 0.57959,-0.17108 0.74108,-0.41515 l 2.57644,0 c 0.16149,0.24481 0.42548,0.41515 0.74035,0.41515 0.3156,0 0.57959,-0.17108 0.74107,-0.41515 l 2.57424,0 c 0.16149,0.24481 0.42548,0.41515 0.74034,0.41515 0.31561,0 0.57959,-0.17108 0.74108,-0.41515 l 2.57645,0 c 0.0642,0.0973 0.14379,0.17771 0.23965,0.24407 l -0.63194,0.83252 c 0,-0.0133 0.007,-0.0243 0.007,-0.0376 0,-0.49921 -0.40409,-0.90404 -0.90331,-0.90404 z m -27.65366,-8.04027 35.65379,0.14542 -4.0477,4.81034 c 0,0 -4.58394,-0.74787 -9.6002,0.66621 -3.62969,1.02321 -6.57956,-2.8577 -10.69255,-2.85034 -4.59622,0.008 -7.00175,2.12456 -7.00175,2.12456 z m 28.78999,46.48347 -21.66016,0 c 1.5205,-1.623 4.93905,-3.84329 10.83008,-3.84329 5.89102,0 9.30957,2.22029 10.83008,3.84329 z m 8.97479,-40.81244 c 0.003,-0.031 0.0177,-0.0583 0.0177,-0.09 0,-0.49922 -0.40483,-0.90405 -0.9033,-0.90405 -0.45055,0 -0.80818,0.33552 -0.87676,0.76615 -0.29053,-0.0745 -0.57591,-0.16591 -0.85464,-0.27504 l 1.3863,-1.82652 c 0.10692,0.0442 0.22343,0.0701 0.34657,0.0701 0.49922,0 0.90331,-0.40409 0.90331,-0.90404 0,-0.20942 -0.0826,-0.39303 -0.20205,-0.54641 l 0.49184,-0.64743 c 0.13273,0.3333 0.45571,0.57074 0.83694,0.57074 0.49922,0 0.90331,-0.40483 0.90331,-0.90404 0,-0.46751 -0.35911,-0.83989 -0.81408,-0.88635 l 0.47635,-0.62678 c 0.2721,-0.35837 0.35321,-0.81335 0.24924,-1.23882 0.0538,-0.11577 0.0877,-0.24187 0.0877,-0.37755 0,-0.49921 -0.40483,-0.90404 -0.90331,-0.90404 -0.18803,0 -0.35321,0.0708 -0.49774,0.16886 -0.0376,-0.003 -0.073,-0.0155 -0.1106,-0.0155 l -0.98663,0 c 0.27504,-0.15485 0.46824,-0.43875 0.46824,-0.77647 0,-0.49922 -0.40483,-0.90478 -0.90331,-0.90478 -0.49995,0 -0.90478,0.40556 -0.90478,0.90478 0,0.33772 0.19394,0.62088 0.46899,0.77647 l -3.18849,0 c 0.27505,-0.15485 0.46825,-0.43875 0.46825,-0.77647 0,-0.49922 -0.40409,-0.90478 -0.90331,-0.90478 -0.49995,0 -0.90404,0.40556 -0.90404,0.90478 0,0.33772 0.19319,0.62088 0.46824,0.77647 l -1.77343,0 c 0.0715,-0.41884 0.17919,-0.82514 0.31929,-1.2167 0.43138,-0.0686 0.76689,-0.42621 0.76689,-0.87602 0,-0.16739 -0.0575,-0.31487 -0.13641,-0.44907 0.14231,-0.23449 0.29569,-0.46087 0.46234,-0.67693 0.14895,0.29496 0.44612,0.50217 0.7986,0.50217 0.49995,0 0.90404,-0.40409 0.90404,-0.90478 0,-0.36428 -0.21753,-0.67324 -0.52871,-0.8163 0.24629,-0.2013 0.51027,-0.38197 0.78237,-0.55083 0.0774,0.42032 0.42916,0.74477 0.87234,0.74477 0.49921,0 0.9033,-0.40483 0.9033,-0.90404 0,-0.22049 -0.0885,-0.41516 -0.219,-0.57222 0.72264,-0.23892 1.49321,-0.37312 2.29476,-0.37312 0.3215,0 0.63563,0.028 0.94607,0.0678 -0.43358,0.0671 -0.76983,0.42547 -0.76983,0.8775 0,0.49921 0.40409,0.90404 0.90404,0.90404 0.49921,0 0.9033,-0.40483 0.9033,-0.90404 0,-0.34805 -0.20204,-0.6408 -0.49036,-0.79196 2.38841,0.49552 4.35356,2.15687 5.27456,4.3602 -0.29643,0.14895 -0.50585,0.44759 -0.50585,0.80228 0,0.49921 0.40483,0.90404 0.90405,0.90404 0.0251,0 0.0464,-0.0125 0.0708,-0.0147 0.0575,0.3687 0.0959,0.74329 0.0959,1.12748 0,0.0553 -0.007,0.10913 -0.008,0.16443 -0.0538,-0.01 -0.1025,-0.0317 -0.15854,-0.0317 -0.49922,0 -0.90405,0.40556 -0.90405,0.90478 0,0.46455 0.35616,0.83325 0.80745,0.88413 -0.30086,1.10461 -0.85169,2.10378 -1.59056,2.93629 -0.10544,-0.0428 -0.219,-0.0686 -0.3392,-0.0686 -0.49995,0 -0.90478,0.40556 -0.90478,0.90478 0,0.087 0.0266,0.16665 0.0494,0.24555 -0.24924,0.18066 -0.50585,0.351 -0.77721,0.49848 -0.12167,-0.0612 -0.25367,-0.10324 -0.39893,-0.10324 -0.40557,0 -0.73666,0.2721 -0.85095,0.63932 -0.71159,0.2308 -1.46889,0.35911 -2.25642,0.35911 -0.0236,0.002 -0.045,-0.001 -0.0671,-0.002 z"
             inkscape:connector-curvature="0"
             transform="translate(1.4617681e-6,1.6257998e-5)" />
          <path
             style="fill:#000000;fill-rule:evenodd;stroke:#000000;stroke-width:0.57522762px;stroke-linecap:butt;stroke-linejoin:miter;stroke-opacity:1"
             d="m -12.721929,760.48261 c 1.614471,0.0921 3.1569966,1.13282 4.6758536,1.40383 1.518858,0.27102 4.3779972,-1.34875 4.3779972,-1.34875 0,0 -2.3496102,1.14885 -3.8684702,0.87783 -1.51886,-0.27101 -3.0613896,-1.31173 -4.6758596,-1.40383 -1.61447,-0.0921 -4.578803,1.25233 -4.578803,1.25233 0,0 2.454812,-0.87348 4.069282,-0.78141 z"
             id="path7427"
             inkscape:connector-curvature="0"
             sodipodi:nodetypes="zzczzcz" />
        </g>
      </g>
    </g>
  </g>
</svg>
