<svg xmlns="http://www.w3.org/2000/svg" xmlns:xlink="http://www.w3.org/1999/xlink" version="1.1" x="0px" y="0px" viewBox="0 0 100 125" enable-background="new 0 0 100 100" xml:space="preserve"><g><rect x="22.961" y="75.957" width="44.333" height="2"/><rect x="69.461" y="75.957" width="7.166" height="2"/><rect x="30.961" y="82.289" width="36.333" height="2"/><path d="M66.167,28.417c-0.553,0-1,0.448-1,1v2.167c0,0.552,0.447,1,1,1s1-0.448,1-1v-2.167   C67.167,28.865,66.72,28.417,66.167,28.417z"/><path d="M69.055,33.194l1.531-1.532c0.391-0.391,0.391-1.024,0-1.415c-0.391-0.39-1.023-0.39-1.414,0l-1.531,1.532   c-0.391,0.391-0.391,1.024,0,1.415c0.195,0.195,0.451,0.292,0.707,0.292S68.859,33.389,69.055,33.194z"/><path d="M68.25,34.667c0,0.553,0.448,1,1,1l2.167,0c0.553,0,1-0.448,1-1c0-0.553-0.448-1-1-1l-2.167,0   C68.697,33.667,68.25,34.115,68.25,34.667z"/><path d="M69.054,36.14c-0.391-0.39-1.023-0.391-1.414,0.001c-0.391,0.391-0.391,1.023,0,1.414l1.533,1.532   c0.195,0.195,0.451,0.292,0.707,0.292s0.512-0.098,0.707-0.293c0.391-0.391,0.391-1.023,0-1.414L69.054,36.14z"/><path d="M63.162,30.248c-0.391-0.391-1.023-0.391-1.414,0s-0.391,1.023,0,1.414l1.531,1.531c0.195,0.195,0.451,0.293,0.707,0.293   s0.512-0.098,0.707-0.293c0.391-0.391,0.391-1.023,0-1.414L63.162,30.248z"/><path d="M83.125,52.168c0.553,0,1-0.447,1-1v-2.166c0-0.552-0.447-1-1-1s-1,0.448-1,1v2.166   C82.125,51.721,82.572,52.168,83.125,52.168z"/><path d="M83.125,60.502c0.553,0,1-0.447,1-1v-2.166c0-0.553-0.447-1-1-1s-1,0.447-1,1v2.166   C82.125,60.055,82.572,60.502,83.125,60.502z"/><path d="M85.306,53.072c0.256,0,0.512-0.098,0.707-0.293l1.531-1.533c0.391-0.391,0.391-1.023,0-1.414   c-0.391-0.39-1.023-0.391-1.414,0.001l-1.531,1.532c-0.391,0.391-0.391,1.024,0,1.414C84.794,52.975,85.05,53.072,85.306,53.072z"/><path d="M85.208,54.252c0,0.553,0.447,1,1,1h2.167c0.553,0,1-0.447,1-1s-0.447-1-1-1h-2.167   C85.655,53.252,85.208,53.699,85.208,54.252z"/><path d="M86.131,58.671c0.195,0.195,0.451,0.293,0.707,0.293s0.512-0.098,0.707-0.293c0.391-0.391,0.391-1.024,0-1.414   l-1.533-1.532c-0.391-0.391-1.023-0.391-1.414,0s-0.391,1.024,0,1.414L86.131,58.671z"/><path d="M81.651,51.363l-1.531-1.531c-0.391-0.391-1.023-0.391-1.414,0s-0.391,1.024,0,1.415l1.531,1.53   c0.195,0.195,0.451,0.293,0.707,0.293s0.512-0.098,0.707-0.293C82.042,52.387,82.042,51.754,81.651,51.363z"/><path d="M41.304,20.208c0-0.552-0.448-1-1-1s-1,0.448-1,1v2.167c0,0.552,0.448,1,1,1s1-0.448,1-1V20.208z"/><path d="M42.484,24.278c0.256,0,0.512-0.098,0.708-0.293l1.531-1.532c0.39-0.391,0.39-1.024,0-1.415   c-0.391-0.39-1.024-0.39-1.415,0l-1.531,1.532c-0.39,0.391-0.39,1.024,0,1.415C41.973,24.181,42.229,24.278,42.484,24.278z"/><path d="M42.387,25.459c0,0.553,0.448,1,1,1l2.167,0c0.553,0,1-0.448,1-1c0-0.553-0.448-1-1-1l-2.167,0   C42.834,24.459,42.387,24.907,42.387,25.459z"/><path d="M43.31,29.878c0.195,0.195,0.451,0.292,0.707,0.292s0.512-0.098,0.708-0.293c0.39-0.391,0.39-1.023-0.001-1.414   l-1.533-1.532c-0.39-0.39-1.023-0.391-1.414,0.001c-0.39,0.391-0.39,1.023,0.001,1.414L43.31,29.878z"/><path d="M37.299,21.039c-0.391-0.391-1.023-0.391-1.414,0s-0.391,1.023,0,1.414l1.531,1.531c0.195,0.195,0.451,0.293,0.707,0.293   s0.512-0.098,0.707-0.293c0.391-0.391,0.391-1.023,0-1.414L37.299,21.039z"/><path d="M26.875,52.082c0-1.355-1.102-2.457-2.457-2.457s-2.457,1.102-2.457,2.457c0,1.354,1.102,2.457,2.457,2.457   S26.875,53.437,26.875,52.082z M24.418,52.539c-0.252,0-0.457-0.205-0.457-0.457s0.205-0.457,0.457-0.457s0.457,0.205,0.457,0.457   S24.67,52.539,24.418,52.539z"/><path d="M28.418,56.25c-1.954,0-3.543,1.59-3.543,3.543s1.589,3.543,3.543,3.543s3.543-1.59,3.543-3.543S30.372,56.25,28.418,56.25   z M28.418,61.336c-0.851,0-1.543-0.692-1.543-1.543s0.692-1.543,1.543-1.543s1.543,0.692,1.543,1.543S29.269,61.336,28.418,61.336z   "/><rect x="21" y="29.17" width="2" height="5.497"/><rect x="21" y="36.25" width="2" height="2.129"/><path d="M81.938,63.253c0.393,0.053,0.789,0.083,1.188,0.083c4.917,0,8.917-4.001,8.917-8.918c0-4.917-4-8.917-8.917-8.917   c-4.691,0-8.539,3.644-8.883,8.249h-1.858l7.906-14.436l-1.754-0.961L70.104,53.75H56.563v13.293c0,0.536,0.077,1.053,0.21,1.548   l-3.187-1.979V51.2l7.613-8.97c1.463,0.982,3.191,1.52,4.968,1.52c4.917,0,8.917-4,8.917-8.917s-4-8.917-8.917-8.917   c-4.578,0-8.358,3.47-8.857,7.917H55.03l6.3-12.637l-1.789-0.893l-6.746,13.53h-9.01c3.192-1.359,5.436-4.526,5.436-8.208   c0-4.917-4-8.917-8.917-8.917c-4.579,0-8.358,3.47-8.857,7.917h-6.179L20.143,10.82l-6.339-2.023l-0.608,1.905l5.411,1.727   l4.527,12.195h-5.759v42.418c0,1.537,0.586,2.938,1.541,4h-5.288v2h74.167v-2h-7.396c0.954-1.063,1.54-2.463,1.54-4V63.253z    M83.125,47.501c3.814,0,6.917,3.103,6.917,6.917c0,3.814-3.103,6.918-6.917,6.918c-0.4,0-0.796-0.046-1.188-0.113V53.75h-5.695   C76.579,50.249,79.536,47.501,83.125,47.501z M79.938,55.75v5.586H68.229l3.06-5.586H79.938z M69.008,55.75l-3.06,5.586h-7.386   V55.75H69.008z M51.84,50.167h-2.183l-5.244-6.417h3.438l-0.525,1.053l1.79,0.893l0.97-1.946h7.2L51.84,50.167z M66.167,27.917   c3.814,0,6.917,3.103,6.917,6.917s-3.103,6.917-6.917,6.917c-1.302,0-2.564-0.381-3.657-1.063l2.709-3.191   c-0.022,0.083-0.052,0.164-0.052,0.254v2.167c0,0.552,0.447,1,1,1s1-0.448,1-1V37.75c0-0.552-0.447-1-1-1   c-0.136,0-0.264,0.028-0.381,0.077l2.541-2.994h-8.996C59.818,30.493,62.693,27.917,66.167,27.917z M64.007,35.833l-5.022,5.917   h-7.901l2.95-5.917H64.007z M48.848,41.75h-6.07l-4.836-5.917h13.855L48.848,41.75z M40.304,18.708   c3.814,0,6.917,3.103,6.917,6.917c0,3.492-2.604,6.381-5.971,6.845v-7.845h-7.783C33.955,21.285,36.83,18.708,40.304,18.708z    M39.25,26.625v7.208h-5.525l5.525,6.761v1.156h-7.625L26.01,26.625H39.25z M23.876,26.625l5.615,15.125H19.375V26.625H23.876z    M23.375,71.043c-2.206,0-4-1.794-4-4V43.75h10.859l2.079,5.6l1.875-0.696l-1.82-4.903h6.883v23.292c0,2.206-1.794,4-4,4H23.375z    M39.709,71.043c0.955-1.063,1.541-2.463,1.541-4V43.041l6.933,8.482v15.091l-7.045,4.429H39.709z M44.896,71.043l5.287-3.323   V52.167h1.403v15.556l5.345,3.32H44.896z M62.563,71.043c-2.206,0-4-1.794-4-4v-3.707h6.291l-1.744,3.184l1.754,0.961l2.27-4.145   h12.805v3.707c0,2.206-1.794,4-4,4H62.563z"/><rect x="60.125" y="56.432" width="2" height="3.361"/><rect x="42.16" y="37.058" transform="matrix(-0.8353 0.5497 -0.5497 -0.8353 100.4419 47.1464)" width="2" height="3.116"/></g><text x="0" y="115" fill="#000000" font-size="5px" font-weight="bold" font-family="'Helvetica Neue', Helvetica, Arial-Unicode, Arial, Sans-serif">Created by Creative Mania</text><text x="0" y="120" fill="#000000" font-size="5px" font-weight="bold" font-family="'Helvetica Neue', Helvetica, Arial-Unicode, Arial, Sans-serif">from the Noun Project</text></svg>