<svg xmlns="http://www.w3.org/2000/svg" xmlns:xlink="http://www.w3.org/1999/xlink" version="1.1" x="0px" y="0px" viewBox="0 0 100 125" enable-background="new 0 0 100 100" xml:space="preserve"><g><circle cx="67.974" cy="20.984" r="1.226"/><circle cx="70.726" cy="18.913" r="1.226"/><circle cx="73.479" cy="20.984" r="1.226"/><circle cx="76.23" cy="18.913" r="1.226"/><circle cx="78.983" cy="20.984" r="1.226"/><circle cx="73.479" cy="33.225" r="1.226"/><circle cx="76.23" cy="31.154" r="1.226"/><circle cx="78.983" cy="29.083" r="1.226"/><circle cx="76.229" cy="26.911" r="1.226"/><circle cx="76.229" cy="22.769" r="1.226"/><circle cx="78.981" cy="24.84" r="1.226"/><circle cx="52.708" cy="39.882" r="1.226"/><circle cx="55.458" cy="41.667" r="1.226"/><circle cx="52.42" cy="43.738" r="1.226"/><circle cx="36.201" cy="39.882" r="1.226"/><circle cx="41.704" cy="39.882" r="1.226"/><circle cx="47.208" cy="39.882" r="1.226"/><circle cx="41.704" cy="52.124" r="1.226"/><circle cx="41.704" cy="47.982" r="1.226"/><circle cx="44.456" cy="50.053" r="1.226"/><circle cx="47.208" cy="52.124" r="1.226"/><circle cx="47.208" cy="47.982" r="1.226"/><circle cx="49.959" cy="50.053" r="1.226"/><circle cx="36.198" cy="43.738" r="1.226"/><circle cx="38.95" cy="45.809" r="1.226"/><circle cx="38.95" cy="41.667" r="1.226"/><circle cx="41.701" cy="43.738" r="1.226"/><circle cx="44.453" cy="45.809" r="1.226"/><circle cx="44.453" cy="41.667" r="1.226"/><circle cx="47.206" cy="43.738" r="1.226"/><circle cx="49.958" cy="45.809" r="1.226"/><circle cx="49.958" cy="41.667" r="1.226"/><circle cx="44.453" cy="54.22" r="1.226"/><path d="M72.014,11.561c-7.119,0-12.998,5.365-13.833,12.262H38.644l-6.119-17.28C32.242,5.744,31.487,5.21,30.64,5.21H16.042   c-1.104,0-2,0.896-2,2s0.896,2,2,2h13.185l5.175,14.612H17.483c-0.76,0-1.454,0.43-1.792,1.111s-0.261,1.494,0.199,2.099   l27.177,35.796v18.819c-11.807,0.697-17.979,7.435-17.979,11.143c0,1.104,0.896,2,2,2h35.956c0.006,0,0.013,0,0.02,0   c1.104,0,2-0.896,2-2c0-0.146-0.016-0.29-0.046-0.427c-0.441-3.776-6.584-10.048-17.952-10.718V62.828L65.82,38.129   c0.042-0.029,0.079-0.066,0.119-0.098c1.887,0.915,3.966,1.418,6.076,1.418c7.689,0,13.944-6.255,13.944-13.944   S79.703,11.561,72.014,11.561z M68.623,27.822l-5.05,6.651H42.416l-2.355-6.651H68.623z M58.213,38.656   c-0.678,0-1.226,0.549-1.226,1.227c0,0.677,0.548,1.226,1.226,1.226c0.135,0,0.26-0.037,0.381-0.077l-2.755,3.629   c-0.122-0.041-0.246-0.077-0.381-0.077c-0.678,0-1.226,0.55-1.226,1.227c0,0.253,0.095,0.474,0.226,0.669l-0.695,0.916   c-0.209-0.375-0.595-0.639-1.055-0.639c-0.677,0-1.225,0.55-1.225,1.227c0,0.578,0.408,1.04,0.946,1.169l-4.625,6.092   c-0.179-0.103-0.376-0.178-0.599-0.178c-0.677,0-1.225,0.548-1.225,1.225c0,0.343,0.141,0.651,0.366,0.873l-0.718,0.946   c-0.12-0.552-0.587-0.974-1.175-0.974c-0.208,0-0.395,0.065-0.566,0.156l-4.615-6.078c0.518-0.144,0.906-0.597,0.906-1.161   c0-0.677-0.549-1.226-1.226-1.226c-0.445,0-0.818,0.25-1.033,0.604l-0.659-0.869c0.096-0.175,0.166-0.366,0.166-0.581   c0-0.677-0.549-1.227-1.225-1.227c-0.096,0-0.182,0.034-0.271,0.055l-3.138-4.132c0.192,0.125,0.408,0.215,0.654,0.215   c0.677,0,1.226-0.549,1.226-1.226s-0.549-1.227-1.226-1.227s-1.226,0.55-1.226,1.227c0,0.124,0.037,0.236,0.071,0.349l-0.883-1.163   c0.304-0.223,0.515-0.565,0.515-0.971c0-0.678-0.549-1.227-1.225-1.227c-0.287,0-0.539,0.113-0.747,0.278l-0.35-0.46h2.843   c0.22,0.332,0.578,0.563,1.006,0.563c0.427,0,0.785-0.232,1.004-0.563h3.495c0.219,0.332,0.578,0.563,1.005,0.563   s0.786-0.232,1.005-0.563h0.444c0.206,0.07,0.42,0.113,0.642,0.113c0.219,0,0.44-0.037,0.658-0.113h1.75   c0.219,0.332,0.578,0.563,1.005,0.563s0.786-0.232,1.005-0.563h3.494c0.219,0.332,0.577,0.563,1.004,0.563   c0.428,0,0.786-0.232,1.005-0.563h3.491c0.219,0.332,0.577,0.563,1.004,0.563c0.428,0,0.786-0.232,1.005-0.563h3.494   c0.087,0.132,0.195,0.241,0.325,0.331l-0.857,1.129c0-0.018,0.01-0.033,0.01-0.051C59.438,39.205,58.89,38.656,58.213,38.656z    M35.817,27.822l2.355,6.651h-11.61l-5.05-6.651H35.817z M59.754,90.79H30.38c2.062-2.201,6.698-5.212,14.687-5.212   S57.692,88.589,59.754,90.79z M71.925,35.443c0.004-0.042,0.024-0.079,0.024-0.122c0-0.677-0.549-1.226-1.225-1.226   c-0.611,0-1.096,0.455-1.189,1.039c-0.394-0.101-0.781-0.225-1.159-0.373l1.88-2.477c0.145,0.06,0.303,0.095,0.47,0.095   c0.677,0,1.225-0.548,1.225-1.226c0-0.284-0.112-0.533-0.274-0.741l0.667-0.878c0.18,0.452,0.618,0.774,1.135,0.774   c0.677,0,1.225-0.549,1.225-1.226c0-0.634-0.487-1.139-1.104-1.202l0.646-0.85c0.369-0.486,0.479-1.103,0.338-1.68   c0.073-0.157,0.119-0.328,0.119-0.512c0-0.677-0.549-1.226-1.225-1.226c-0.255,0-0.479,0.096-0.675,0.229   c-0.051-0.004-0.099-0.021-0.15-0.021h-1.338c0.373-0.21,0.635-0.595,0.635-1.053c0-0.677-0.549-1.227-1.225-1.227   c-0.678,0-1.227,0.55-1.227,1.227c0,0.458,0.263,0.842,0.636,1.053H65.81c0.373-0.21,0.635-0.595,0.635-1.053   c0-0.677-0.548-1.227-1.225-1.227c-0.678,0-1.226,0.55-1.226,1.227c0,0.458,0.262,0.842,0.635,1.053h-2.405   c0.097-0.568,0.243-1.119,0.433-1.65c0.585-0.093,1.04-0.578,1.04-1.188c0-0.227-0.078-0.427-0.185-0.609   c0.193-0.318,0.401-0.625,0.627-0.918c0.202,0.4,0.605,0.681,1.083,0.681c0.678,0,1.226-0.548,1.226-1.227   c0-0.494-0.295-0.913-0.717-1.107c0.334-0.273,0.692-0.518,1.061-0.747c0.105,0.57,0.582,1.01,1.183,1.01   c0.677,0,1.225-0.549,1.225-1.226c0-0.299-0.12-0.563-0.297-0.776c0.98-0.324,2.025-0.506,3.112-0.506   c0.436,0,0.862,0.038,1.283,0.092c-0.588,0.091-1.044,0.577-1.044,1.19c0,0.677,0.548,1.226,1.226,1.226   c0.677,0,1.225-0.549,1.225-1.226c0-0.472-0.274-0.869-0.665-1.074c3.239,0.672,5.904,2.925,7.153,5.913   c-0.402,0.202-0.686,0.607-0.686,1.088c0,0.677,0.549,1.226,1.226,1.226c0.034,0,0.063-0.017,0.096-0.02   c0.078,0.5,0.13,1.008,0.13,1.529c0,0.075-0.01,0.148-0.011,0.223c-0.073-0.013-0.139-0.043-0.215-0.043   c-0.677,0-1.226,0.55-1.226,1.227c0,0.63,0.483,1.13,1.095,1.199c-0.408,1.498-1.155,2.853-2.157,3.982   c-0.143-0.058-0.297-0.093-0.46-0.093c-0.678,0-1.227,0.55-1.227,1.227c0,0.118,0.036,0.226,0.067,0.333   c-0.338,0.245-0.686,0.476-1.054,0.676c-0.165-0.083-0.344-0.14-0.541-0.14c-0.55,0-0.999,0.369-1.154,0.867   c-0.965,0.313-1.992,0.487-3.06,0.487C71.984,35.449,71.955,35.444,71.925,35.443z"/></g><text x="0" y="115" fill="#000000" font-size="5px" font-weight="bold" font-family="'Helvetica Neue', Helvetica, Arial-Unicode, Arial, Sans-serif">Created by Fuat şanlı</text><text x="0" y="120" fill="#000000" font-size="5px" font-weight="bold" font-family="'Helvetica Neue', Helvetica, Arial-Unicode, Arial, Sans-serif">from the Noun Project</text></svg>