<svg xmlns="http://www.w3.org/2000/svg" xmlns:xlink="http://www.w3.org/1999/xlink" version="1.1" x="0px" y="0px" viewBox="0 0 100 125" enable-background="new 0 0 100 100" xml:space="preserve"><g><path d="M70.783,78.627l-8.09-5.025V56.202l8.639-10.177c1.641,1.127,3.591,1.744,5.596,1.744c5.449,0,9.882-4.433,9.882-9.881   c0-5.449-4.433-9.881-9.882-9.881c-5.11,0-9.326,3.9-9.829,8.881h-2.861l7.155-14.352l-1.789-0.893l-7.6,15.244H51.14   c3.868-1.341,6.657-5.012,6.657-9.33c0-5.448-4.433-9.881-9.88-9.881c-5.111,0-9.327,3.9-9.83,8.881h-7.122l-5.757-15.509   l-7.054-2.251l-0.608,1.905l6.126,1.955l5.16,13.9h-6.513V74.02c0,1.791,0.719,3.416,1.881,4.607H8.127v2h83.196v-2H70.783z    M60.913,55.209H58.35l-6.081-7.44h4.311l-0.677,1.357l1.789,0.893l1.122-2.25h8.415L60.913,55.209z M76.928,30.006   c4.346,0,7.882,3.536,7.882,7.881s-3.536,7.881-7.882,7.881c-1.53,0-3.02-0.454-4.292-1.28l6.452-7.601h-9.97   C69.612,33.014,72.923,30.006,76.928,30.006z M74.768,38.888l-5.841,6.881h-9.116l3.43-6.881H74.768z M57.576,45.769h-6.942   l-5.624-6.881h15.996L57.576,45.769z M47.917,19.677c4.345,0,7.88,3.535,7.88,7.881c0,4.027-3.037,7.353-6.94,7.819v-8.819h-8.75   C40.6,22.684,43.91,19.677,47.917,19.677z M46.856,28.558v8.33h-6.063l6.063,7.419v1.462h-8.761l-6.389-17.211H46.856z    M29.573,28.558l6.39,17.211H24.318V28.558H29.573z M28.927,78.627c-2.542,0-4.609-2.066-4.609-4.607V47.769h12.387l2.361,6.36   l1.875-0.695l-2.103-5.665h8.018V74.02c0,2.541-2.068,4.607-4.609,4.607H28.927z M46.976,78.627   c1.162-1.191,1.881-2.816,1.881-4.607V46.753l8.02,9.812v17.039l-7.989,5.022H46.976z M52.645,78.627l6.231-3.917V57.209h1.817   v17.504l6.3,3.914H52.645z"/><rect x="18.598" y="84.141" width="49.73" height="2"/><rect x="70.759" y="84.141" width="8.038" height="2"/><rect x="27.571" y="90.242" width="40.757" height="2"/><path d="M76.928,30.812c-0.553,0-1,0.448-1,1v2.43c0,0.552,0.447,1,1,1s1-0.448,1-1v-2.43   C77.928,31.259,77.48,30.812,76.928,30.812z"/><path d="M76.928,40.16c-0.553,0-1,0.448-1,1v2.43c0,0.552,0.447,1,1,1s1-0.448,1-1v-2.43C77.928,40.608,77.48,40.16,76.928,40.16z"/><path d="M80.082,35.961l1.717-1.719c0.391-0.391,0.391-1.024,0-1.414c-0.391-0.39-1.025-0.391-1.414,0.001l-1.717,1.719   c-0.391,0.391-0.391,1.024,0,1.414c0.195,0.195,0.451,0.292,0.707,0.292S79.888,36.157,80.082,35.961z"/><path d="M79.387,37.701c0,0.552,0.448,1,1,1l2.431,0c0.553,0,1-0.448,1-1s-0.448-1-1-1l-2.431,0   C79.834,36.701,79.387,37.149,79.387,37.701z"/><path d="M80.081,39.439c-0.391-0.391-1.023-0.391-1.414,0s-0.391,1.023,0,1.414l1.719,1.719c0.195,0.195,0.451,0.293,0.707,0.293   s0.512-0.098,0.707-0.293c0.391-0.391,0.391-1.023,0-1.414L80.081,39.439z"/><path d="M73.473,32.829c-0.391-0.391-1.023-0.39-1.414,0c-0.391,0.391-0.391,1.024,0,1.415l1.717,1.718   c0.195,0.195,0.451,0.293,0.707,0.293s0.512-0.098,0.707-0.292c0.391-0.391,0.391-1.024,0-1.415L73.473,32.829z"/><path d="M48.917,21.482c0-0.552-0.448-1-1-1s-1,0.448-1,1v2.43c0,0.552,0.448,1,1,1s1-0.448,1-1V21.482z"/><path d="M50.362,25.926c0.256,0,0.512-0.098,0.707-0.293l1.718-1.719c0.391-0.391,0.391-1.024,0-1.415   c-0.391-0.39-1.023-0.39-1.414,0l-1.718,1.719c-0.39,0.391-0.39,1.024,0,1.415C49.851,25.828,50.106,25.926,50.362,25.926z"/><path d="M50.374,27.372c0,0.552,0.448,1,1,1l2.432,0c0.553,0,1-0.448,1-1s-0.448-1-1-1l-2.432,0   C50.822,26.372,50.374,26.819,50.374,27.372z"/><path d="M51.374,32.242c0.195,0.195,0.451,0.292,0.707,0.292s0.512-0.098,0.707-0.293c0.391-0.391,0.391-1.024,0-1.415l-1.72-1.718   c-0.391-0.39-1.024-0.39-1.415,0c-0.39,0.391-0.39,1.024,0,1.415L51.374,32.242z"/><path d="M44.459,22.5c-0.391-0.391-1.023-0.391-1.414,0s-0.391,1.024,0,1.414l1.718,1.717c0.195,0.195,0.451,0.293,0.707,0.293   s0.512-0.098,0.707-0.293c0.391-0.391,0.391-1.024,0-1.414L44.459,22.5z"/><path d="M32.731,57.236c0-1.453-1.182-2.635-2.635-2.635s-2.634,1.182-2.634,2.635c0,1.452,1.182,2.634,2.634,2.634   S32.731,58.688,32.731,57.236z M30.096,57.87c-0.35,0-0.634-0.284-0.634-0.634s0.285-0.635,0.634-0.635   c0.35,0,0.635,0.285,0.635,0.635S30.446,57.87,30.096,57.87z"/><path d="M34.583,62.033c-2.125,0-3.853,1.729-3.853,3.853s1.728,3.852,3.853,3.852c2.124,0,3.852-1.728,3.852-3.852   S36.708,62.033,34.583,62.033z M34.583,67.737c-1.021,0-1.853-0.831-1.853-1.852c0-1.021,0.831-1.853,1.853-1.853   c1.021,0,1.852,0.831,1.852,1.853C36.436,66.906,35.604,67.737,34.583,67.737z"/><rect x="26.384" y="31.535" width="2" height="6.166"/><rect x="26.384" y="39.477" width="2" height="2.388"/><rect x="50.121" y="40.382" transform="matrix(-0.8352 0.55 -0.55 -0.8352 116.9858 49.2023)" width="1.999" height="3.495"/></g><text x="0" y="115" fill="#000000" font-size="5px" font-weight="bold" font-family="'Helvetica Neue', Helvetica, Arial-Unicode, Arial, Sans-serif">Created by Creative Mania</text><text x="0" y="120" fill="#000000" font-size="5px" font-weight="bold" font-family="'Helvetica Neue', Helvetica, Arial-Unicode, Arial, Sans-serif">from the Noun Project</text></svg>