<?xml version="1.0" encoding="iso-8859-1"?>
<!-- Generator: Adobe Illustrator 16.0.0, SVG Export Plug-In . SVG Version: 6.00 Build 0)  -->
<!DOCTYPE svg PUBLIC "-//W3C//DTD SVG 1.1//EN" "http://www.w3.org/Graphics/SVG/1.1/DTD/svg11.dtd">
<svg version="1.1" id="Capa_1" xmlns="http://www.w3.org/2000/svg" xmlns:xlink="http://www.w3.org/1999/xlink" x="0px" y="0px"
	 width="33.595px" height="33.595px" viewBox="0 0 33.595 33.595" style="enable-background:new 0 0 33.595 33.595;"
	 xml:space="preserve">
<g>
	<path d="M33.056,6.58c-0.25-0.584-2.083-1.084-3.5-1.292s-4.042-0.042-4.042-0.042s-0.042-1.416-0.042-2.541
		s-1.208-1.125-2.75-1.125H10.056c-3.292,0-8.917-0.125-9.875,0.875s2.167,3.791,2.917,4.416s0.417,0.75,0.417,1.584
		c0,0,0.042,16.833,0.083,20.625c0.042,3.791,6.958,2.833,9.167,2.833s8.375-0.083,10.917-0.125s2.042-5.083,2.042-6.708
		s-0.208-11.667-0.25-13.625c-0.042-1.959,3.125-1.292,3.542-1.167s0.5,0.5,0.583,1.292c0.083,0.791,0.083,4.375-0.042,7.666
		c-0.125,3.292,2.25,2.959,3.167,2.625c0.917-0.333,0.667-6.791,0.833-9.875C33.723,8.913,33.306,7.163,33.056,6.58z M23.723,16.58
		c-0.125,4.625,0.125,11.458-0.125,12.5c-0.25,1.041-1.917,1-3.333,0.958s-4.458,0.125-5.625,0.125s-6.708-0.375-7.458-0.417
		c-0.75-0.041-1.375-0.041-1.333-0.291s0-1.792,0.125-2.042s1.542-0.125,2.25-0.167c0.708-0.041,0.875,0,1.125-0.25
		s0.25-0.75-0.542-0.916c-0.792-0.167-2.583-0.209-2.917-0.209s-0.167-0.583-0.167-0.958s0.875-0.25,1.417-0.292
		c0.542-0.041,0.75,0.084,0.75-0.375c0-0.458-1.958-0.625-2.208-0.708s0.125-0.708,0.083-1.042c-0.042-0.333,0.5-0.291,0.792-0.291
		s0.792-0.042,0.792-0.292s-1-0.583-1.375-0.583s-0.25-0.125-0.25-0.542s0.583-0.125,1.167-0.208
		c0.583-0.084,0.875-0.084,0.792-0.459S6.35,19.83,5.891,19.83s-0.042-1.5-0.042-1.75s2.042-0.125,2.458-0.167
		c0.417-0.042,0.292-0.125,0.333-0.75s-0.708-0.458-2.083-0.583s-0.792-0.709-0.792-1.084s-0.042-0.375,0.583-0.458
		S7.14,14.955,7.14,14.83s-0.708-0.292-1.208-0.417s-0.25-1.042-0.25-1.208c0-0.167,1.208-0.084,1.792-0.084
		c0.583,0,0.583-0.208,0.375-0.541c-0.208-0.334-1.708-0.209-2.125-0.25c-0.417-0.042-0.208-0.709-0.208-1.167
		s0.708-0.25,1.125-0.25s0.417-0.042,0.417-0.375s-1.127-0.333-1.419-0.375S5.598,9.246,5.598,9.038S7.723,8.871,8.39,8.871
		s0.5-0.583,0.417-1.166C8.723,7.121,5.889,7.288,5.639,7.246C5.389,7.205,5.681,6.83,5.681,6.455S5.264,5.788,4.473,5.496
		c-0.792-0.291-1.042-0.708-1.708-1.5C2.098,3.205,4.056,3.621,5.806,3.621s4.29-0.166,5.917-0.166c0.167,0,5.625,0.291,6.083,0.375
		c0.458,0.083,0.458,0.416,0.458,1.666s0.375,7.292,0.375,11.542s0.125,11.25,0.75,11.208c0.625-0.041,0.375-5.791,0.25-10.041
		S19.264,4.788,19.223,4.08c-0.042-0.709,1.208-0.292,1.625-0.292s0.25,2.958,0.25,6.375s0.333,10.958,0.333,13.875
		s0.25,3.333,0.833,3.375s0.125-3.458,0.125-6.667c0-3.208-0.375-15.708-0.375-16.375c0-0.666,0.667-0.791,1.083-0.791
		c0.417,0,0.583,1.166,0.583,2.541S23.848,11.955,23.723,16.58z M31.723,13.663c-0.333,0.083-0.333-0.667-0.333-2.417
		s-0.667-1.583-1.708-2.125C28.64,8.58,26.057,8.663,25.89,8.663s-0.333-0.708-0.25-1.208s0.293-0.527,0.75-0.584
		c1.708-0.208,4,0.209,5.042,0.334s0.583,2.125,0.583,3.541C32.014,12.163,32.056,13.58,31.723,13.663z"/>
</g>
<g>
</g>
<g>
</g>
<g>
</g>
<g>
</g>
<g>
</g>
<g>
</g>
<g>
</g>
<g>
</g>
<g>
</g>
<g>
</g>
<g>
</g>
<g>
</g>
<g>
</g>
<g>
</g>
<g>
</g>
</svg>
