<?xml version="1.0" encoding="iso-8859-1"?>
<!-- Generator: Adobe Illustrator 16.0.0, SVG Export Plug-In . SVG Version: 6.00 Build 0)  -->
<!DOCTYPE svg PUBLIC "-//W3C//DTD SVG 1.1//EN" "http://www.w3.org/Graphics/SVG/1.1/DTD/svg11.dtd">
<svg version="1.1" id="Capa_1" xmlns="http://www.w3.org/2000/svg" xmlns:xlink="http://www.w3.org/1999/xlink" x="0px" y="0px"
	 width="46.148px" height="46.148px" viewBox="0 0 46.148 46.148" style="enable-background:new 0 0 46.148 46.148;"
	 xml:space="preserve">
<g>
	<path d="M46.05,5.564c-0.178-0.359-1.602-2.337-2.044-2.651c-0.442-0.315-1.286,0.684-1.827,1.164
		c-0.542,0.481-2.027,2.289-2.393,2.429c-0.366,0.14,1.104-3.145,1.229-3.788c0.125-0.645-1.731-1.498-3.107-1.811
		c-1.376-0.312-1.451,0.167-1.941,0.951c-0.49,0.783-1.806,4.976-1.806,4.976c-1.704,0.055-2.925,1.584-4.158,3.038
		c-1.234,1.454-4.101,6.142-4.101,6.142s-0.467-5.526-0.47-6.927s-1.152-1.752-2.085-1.749c-0.934,0.002-4.466,0.287-5.451,0.453
		c-0.983,0.167-0.829,1.542-0.829,1.542c-0.468-0.466-2.388-1.231-4.824-1.365c-2.436-0.134-5.399,1.223-6.683,2.374
		c-1.285,1.151-3.26,3.742-3.33,6.557c-0.069,2.814,2.017,4.564,2.017,4.564c-5.715,0.731-4.131,3.657-3.775,4.607
		c0.355,0.952,1.991,4.181,2.556,5.681s2.192,1.226,2.457,1.181c0.265-0.045,1.195,3.847,1.896,6.842
		c0.701,2.996,1.247,4.384,2.548,5.176c1.302,0.792,5.396,0.14,10.557,0.046c5.161-0.095,10.034,0.64,12.714,0.147
		s3.292-3.319,3.903-6.382c0.611-3.062,1.316-6.723,1.537-6.799c0.22-0.076,0.833,0.093,1.395-0.041s1.179-0.627,1.604-1.789
		s0.108-5.353,0.147-7.654s-2.102-2.759-2.65-2.783c-0.549-0.023,0.956-1.251,2.492-3.223c1.535-1.973,0.226-3.503,0.226-3.503
		s0.145-0.297,0.391-0.455c0.246-0.158,2.026-1.821,2.89-2.474c0.863-0.652,0.136-1.269-0.268-1.59
		c-0.405-0.32,0.049-0.631,0.703-1.364C46.222,6.353,46.227,5.923,46.05,5.564z M18.593,9.621l5.243-0.303l0.543,14.738
		l-4.631,0.238L18.593,9.621z M6.005,12.524c1.221-1.296,3.268-3.004,6.411-2.601c3.143,0.403,4.478,2.085,4.674,2.324
		c0.196,0.239,0.364,1.924,0.308,2.283c-0.056,0.36-0.1,0.562-0.334,0.329c-0.234-0.233-0.379-0.17-0.63,0.185
		c-0.251,0.354-0.97,0.942-1.379,1.283c-0.41,0.342-0.687,0.312-1.053,0.218c-0.366-0.094-0.538-0.416-0.336-0.839
		s0.733-2.343,0.896-2.76s0.313-0.909,0.124-1.11c-0.19-0.201-0.638-0.32-0.884-0.162c-0.246,0.158-0.571,1.459-0.997,2.854
		c-0.426,1.396-0.557,2.001-0.714,2.223c-0.157,0.221-0.24-0.038-0.67-0.743c-0.431-0.706-1.665-2.249-2.038-2.848
		c-0.373-0.599-0.809-0.642-1.187-0.345c-0.378,0.298-0.036,0.707,0.186,1.098c0.222,0.391,1.286,2.079,1.735,2.665
		c0.449,0.586,0.867,0.982,0.621,1.141c-0.246,0.158-1.13-0.471-1.976-0.639c-0.846-0.169-2.083-0.582-2.961-0.707
		c-0.877-0.124-0.712,0.16-0.856,0.69c-0.144,0.53,0.702,0.698,1.781,0.866s2.601,0.65,2.936,0.789
		c0.335,0.138,0.518,0.301,0.475,0.503c-0.044,0.202-1.293,0.413-1.652,0.591c-0.359,0.178,0.021,1.047,0.021,1.047l-2.788,0.316
		c0,0,0.048-0.865-0.205-1.212C5.257,19.62,4.809,19.5,4.099,18.062S4.784,13.821,6.005,12.524z M15.506,17.615
		c-0.171-0.266,0.699-0.701,1.026-1.068c0.327-0.366,0.799-0.797,0.863-0.418c0.064,0.378,0.494,3.614,0.191,3.665
		c-0.303,0.052-1.142,0.154-1.445,0.205c-0.303,0.052-1.193-0.148-0.916-0.351C15.504,19.444,15.823,18.106,15.506,17.615z
		 M14.001,19.31c-0.182,0.536,0.147,0.637-0.762,0.79c-0.908,0.153-1.25-0.489-1.232-1.076c0.018-0.587,0.597-1.074,1.044-1.188
		c0,0,0.31-0.014,0.928,0.193S14.184,18.772,14.001,19.31z M36.305,35.431c-0.456,2.141-1.226,4.956-1.501,6.093
		c-0.275,1.138-0.874,1.511-1.655,1.721s-1.975,0.295-3.658,0.229c-1.686-0.065-5.755-0.196-8.714-0.202s-7.849,0.314-9.325,0.33
		c-1.476,0.017-2.156-2.166-2.602-4.114c-0.446-1.947-1.55-4.798-2.032-5.572c-0.482-0.775-0.057-1.021,0.288-1.062
		c0.801-0.097,6.017-1.017,10.148-1.676s5.924-0.417,7.337-0.345c1.414,0.072,2.973,0.314,5.844,0.259
		c2.871-0.057,5.199,0.133,6.001,0.504C37.236,31.965,36.761,33.291,36.305,35.431z M40.165,23.257
		c0.046,1.199,0.253,3.344,0.136,4.493c-0.117,1.147-0.221,2.605-1.736,2.395c-1.515-0.211-4.211-1.194-6.109-1.146
		c-1.899,0.049-2.72,0.266-6.266,0.24c-3.545-0.022-6.039-0.264-10.302,0.534c-4.263,0.799-7.802,1.279-9.133,1.466
		s-2.157,0.364-2.494-0.475c-0.336-0.838-1.136-2.805-1.136-2.805c-0.336-0.839-1.958-3.757-1.113-4.056
		c0.845-0.299,3.368-0.803,6.401-1.276c3.034-0.474,7.412-0.824,8.245-0.965s1.167-0.003,1.167-0.003s0.171,3.318,0.602,3.792
		c0.431,0.473,1.213,0.729,2.488,0.67c1.275-0.06,3.186-0.032,3.603-0.104c0.416-0.069,1.456-0.597,1.428-1.682
		c-0.026-1.086-0.253-3.11-0.025-3.148c0.227-0.039,3.49,0.383,5.914,0.44c2.423,0.058,4.284,0.016,5.798-0.007
		C39.145,21.601,40.118,22.059,40.165,23.257z M40.505,14.676c-0.118,0.682-0.742,1.137-1.648,2.225
		c-0.905,1.087-2.031,2.718-2.296,2.763c-0.265,0.044-2.883,0.214-5.963-0.044c-3.08-0.259-4.386-0.388-4.722-0.76
		c0,0-0.147-0.87,0.148-1.192c0.296-0.322,3.461-4.166,4.48-5.506c1.019-1.34,3.04-3.433,3.419-3.264
		c0.379,0.17,3.305,2.283,4.569,3.315C39.757,13.245,40.623,13.994,40.505,14.676z M43.982,6.926
		c-0.428,0.462-1.662,1.682-1.408,2.028c0.253,0.347,0.827,0.521,0.575,0.876c-0.251,0.354-0.824,0.646-1.321,1.157
		c-0.498,0.513-0.755,1.062-1.312,0.533c-0.556-0.529-2.856-2.164-3.615-2.736c-0.502-0.38-1.68-0.729-1.484-1.189
		c0.194-0.46,0.878-2.406,1.285-3.682c0.406-1.276,0.589-1.812,1-1.687c0.41,0.125,1.231,0.609,1.408,0.734
		c0.178,0.126,0.519,0.302,0.217,0.82c-0.303,0.518-1.099,2.716-0.996,3.088c0.102,0.372,0.342,0.643,0.771,0.882
		c0.43,0.238,0.916,0.584,1.155,0.388c0.239-0.196,0.994-1.258,1.875-2.263s1.062-1.542,1.518-1.151
		c0.456,0.39,0.778,0.686,0.943,0.97C44.757,5.978,44.411,6.463,43.982,6.926z M30.243,16.371c-0.651-0.396-0.977-0.179-1.098,0.186
		c-0.207,0.619,0.797,1.033,1.404,1.397c0.606,0.365,1.22,1.234,1.788,1.139c0.566-0.097,0.345-0.954-0.035-1.356
		C31.923,17.332,30.894,16.767,30.243,16.371z M32.671,13.235c-0.323-0.296-0.876-0.118-1.022,0.173
		c-0.319,0.638,0.748,1.431,1.588,2.028c0.841,0.598,0.602,0.793,0.811,1.108s1.021,0.294,1.217-0.167s0.023-1.016-0.521-1.469
		C34.201,14.457,32.994,13.532,32.671,13.235z M18.472,37.471c-1.072,0.104-1.318,0.262-1.318,0.262
		c-0.706,0.197-2.277,0.112-2.155,1.065c0.122,0.952,0.199,1.64,0.465,2.062c0.266,0.424,0.626,0.712,1.805,0.318
		s2.726,0.007,2.635-0.99C19.813,39.19,19.544,37.369,18.472,37.471z M17.858,39.832c-0.46,0.039-0.378,0.063-1.097,0.186
		c-0.719,0.122-0.493-0.384-0.595-0.756s0.73-0.306,1.097-0.419c1.11-0.343,1.262,0.099,1.326,0.477
		C18.653,39.699,18.319,39.793,17.858,39.832z M31.091,31.758c-1.161,0.04-1.501,0.098-1.949,0.213
		c-0.343,0.087-1.489-0.06-1.523,1.113c-0.035,1.174-0.097,2.195,0.642,2.188s2.461,0.052,3.035-0.007
		c0.574-0.058,0.946-0.394,0.912-1.283C32.173,33.093,32.252,31.718,31.091,31.758z M30.831,33.903
		c-0.378,0.064-0.776,0.016-1.545,0.066c-0.771,0.053-0.455-0.39-0.462-0.661c-0.008-0.271,0.464-0.049,0.863-0.185
		c1.142-0.389,1.369,0.041,1.401,0.229C31.12,33.544,31.209,33.84,30.831,33.903z M28.104,36.662
		c-1.041,0.059-1.54,0.104-1.54,0.104c-0.669-0.043-1.975-0.173-2.2,0.566c-0.227,0.737-0.147,1.893-0.173,2.208
		c-0.023,0.315,0.433,1.173,1.467,1.076c1.033-0.098,1.153-0.078,1.792,0.009c0.638,0.087,1.414,0.071,1.579-1.475
		C29.199,37.604,29.146,36.602,28.104,36.662z M27.862,38.454c-0.043,0.436-0.042,0.669-0.592,0.646
		c-0.549-0.023-0.927,0.04-1.482-0.021c-0.556-0.062-0.229-0.43-0.262-0.852c-0.031-0.423,0.626-0.178,1.055-0.217
		C27.615,37.912,27.906,38.018,27.862,38.454z M14.77,35.605c-0.129-1.224,0.077-2.31-0.7-2.527
		c-0.777-0.221-1.716-0.021-1.716-0.021c-0.719,0.121-1.981,0.023-1.929,1.026c0.052,1.003,0.435,2.572,0.549,2.787
		c0.114,0.215,0.196,0.473,1.376,0.312c1.18-0.161,1.634-0.237,1.898-0.282C14.514,36.855,14.899,36.83,14.77,35.605z
		 M13.653,35.443c-0.005,0.663-0.535,0.52-1.305,0.571s-0.582-0.681-0.634-1.217c-0.052-0.536,0.523-0.36,0.977-0.438
		c0,0,0.24,0.037,0.58-0.02C13.612,34.284,13.658,34.782,13.653,35.443z M22.384,32.062c-0.568,0.097-2.631,0.094-2.965,0.189
		c-0.413,0.117-0.876,0.343-1.134,0.658c-0.258,0.315,0.104,1.54,0.093,1.931c-0.012,0.392,0.141,1.065,1.271,1.07
		c1.13,0.004,2.511-0.113,2.852-0.172c0.341-0.058,0.598-0.605,0.564-1.495C23.031,33.354,22.952,31.965,22.384,32.062z
		 M21.978,33.804c0.051,0.303,0.071,0.649-0.339,0.758c-0.41,0.108-0.852,0.027-1.66,0.086c-0.808,0.06-0.601-0.561-0.589-0.951
		c0.012-0.392,0.874-0.218,1.161-0.273C21.945,33.147,21.927,33.501,21.978,33.804z"/>
</g>
<g>
</g>
<g>
</g>
<g>
</g>
<g>
</g>
<g>
</g>
<g>
</g>
<g>
</g>
<g>
</g>
<g>
</g>
<g>
</g>
<g>
</g>
<g>
</g>
<g>
</g>
<g>
</g>
<g>
</g>
</svg>
