<?xml version="1.0" encoding="iso-8859-1"?>
<!-- Generator: Adobe Illustrator 16.0.0, SVG Export Plug-In . SVG Version: 6.00 Build 0)  -->
<!DOCTYPE svg PUBLIC "-//W3C//DTD SVG 1.1//EN" "http://www.w3.org/Graphics/SVG/1.1/DTD/svg11.dtd">
<svg version="1.1" id="Capa_1" xmlns="http://www.w3.org/2000/svg" xmlns:xlink="http://www.w3.org/1999/xlink" x="0px" y="0px"
	 width="41.264px" height="41.264px" viewBox="0 0 41.264 41.264" style="enable-background:new 0 0 41.264 41.264;"
	 xml:space="preserve">
<g>
	<path d="M19.728,23.104c0.347-0.313,0.53-1.189-0.095-1.31c-0.443-0.084-1.145,0.659-0.829,1.047
		C19.119,23.229,19.38,23.416,19.728,23.104z M19.798,25.771c0.187-0.261-0.124-0.566-0.491-0.54c-0.29,0.021-0.8,0.305-0.405,0.646
		C19.296,26.217,19.611,26.029,19.798,25.771z M21.945,25.901c0.359-0.149,0.565-0.698,0.375-1.055
		c-0.189-0.356-0.481-0.417-0.854-0.433c-0.412-0.016-0.63,0.375-0.542,1.026C21.012,26.091,21.586,26.051,21.945,25.901z
		 M20.148,28.334c-0.328-0.006-0.709,0.422-0.44,0.73c0.269,0.31,0.395,0.342,0.663,0.075
		C20.639,28.874,20.602,28.342,20.148,28.334z M21.956,29.438c0.318,0.429,0.672,0.196,0.932-0.191
		c0.259-0.389-0.138-0.771-0.67-0.731C21.889,28.537,21.635,29.007,21.956,29.438z M26.095,30.41
		c-0.454,0.112-0.85,0.761-0.571,1.192c0.278,0.433,0.978,0.423,1.277,0.029C27.101,31.241,27.266,30.119,26.095,30.41z
		 M20.354,31.731c-0.53-0.074-1.098,0.736-0.682,1.363c0.416,0.629,1.15,0.574,1.299-0.217
		C21.119,32.087,20.935,31.812,20.354,31.731z M18.99,35.037c-0.407,0.052-0.867,0.515-0.536,1.107
		c0.331,0.593,0.737,0.521,1.245,0.155C20.208,35.936,19.723,34.942,18.99,35.037z M25.901,34.535
		c-0.563-0.104-1.062,0.652-0.808,1.333s0.943,0.548,1.483,0.057C27.117,35.435,26.693,34.685,25.901,34.535z M32.901,6.36
		c-0.965-0.834-3.292-2.31-3.888-2.595c-0.596-0.286-1.479,0.024-2.042,2.45c-0.564,2.425-0.999,5.499-0.999,5.499l-2.29,0.166
		c0,0-0.264-5.9,0.221-6.019c0.484-0.117,0.917-0.396,1.122,0.165s1.397,0.557,1.354-0.057c-0.044-0.614-0.312-1.457-0.312-1.457
		s1.728-1.688,2.373-1.857c0.646-0.171,1.163,0.162,1.472-0.107c0.311-0.27,0.377-1.055-0.378-1.247
		c-0.754-0.191-3.848-0.337-4.64-0.485s-1.405-0.104-1.405-0.104s-0.226-0.847-1.2-0.694c-0.977,0.153-1.354,1.167-0.954,1.591
		c0,0-4.221,2.443-5.325,3.1c0,0-0.307,0.31,0.053,0.736c0.36,0.426,0.69,0.443,1.002,0.215c0.312-0.229,1.019-0.69,1.019-0.69
		l1.626,1.444c0,0-0.712,0.955-0.106,1.363c0.605,0.409,1.028,0.008,1.197-0.497c0.169-0.506,0.35-0.848,0.35-0.848l1.14-0.165
		l0.201,5.617l-3.575,0.013c0,0-0.912-5.771-6.526-4.953c0,0-5.017,1.104-4.678,6.917c0,0,0.471,5.352,6.648,4.369
		c0.128-0.021,1.165,6.985,1.058,11.187c-0.106,4.201-1.799,10.326,0.813,11.205c2.613,0.88,6.784,0.577,9.336,0.638
		c2.553,0.062,4.876-1.916,4.744-4.865c-0.132-2.95-1.667-11.637-1.151-15.866c0.517-4.23,1.512-7.51,0.488-8.011
		C28.625,12.017,27.48,12.1,27.48,12.1s0.634-7.117,1.396-6.844c0.76,0.274,1.402,1.214,2.123,2.066
		c0.72,0.852,1.597,1.61,2.121,0.915C33.644,7.541,33.866,7.195,32.901,6.36z M25.673,13.257c0.018,0.245-0.398,1.879-0.543,2.712
		c-0.146,0.833-0.136,2.106-0.424,2.086c-0.289-0.02-1.148,0.042-1.073-0.621s-0.099-4.186,0.064-4.197
		C23.82,13.228,25.655,13.013,25.673,13.257z M24.167,2.145c0.566-0.123,1.978,0.062,2.354,0.158
		c0.377,0.096-0.011,0.411-0.402,0.688c-0.391,0.276-0.454,0.526-0.765,0.796C25.046,4.053,23.711,2.244,24.167,2.145z
		 M20.481,5.166c-0.519,0.778-0.654,0.048-1.262-0.401c-0.608-0.449-0.258-0.722,0.344-0.93c0.601-0.208,2.083-0.727,2.083-0.727
		C21.896,3.131,21,4.389,20.481,5.166z M21.798,5.193c-0.855,0.103,0.122-0.585,0.507-0.941c0.385-0.357,0.564-1.274,0.77-1.289
		c0.164-0.012,0.535,0.577,0.988,1.161c0.454,0.584,0.208,0.602-0.16,0.628C23.536,4.779,22.654,5.09,21.798,5.193z M22.392,13.373
		c0.248,0.022,0.124,3.403,0.025,4.314c-0.1,0.911-0.195,0.713-0.788,1.044c-0.594,0.33-0.563,0.164-1.041-0.172
		c-0.476-0.335-1.274-0.564-2.183-0.622s-1.62,1.474-1.853,1.655c-0.233,0.181-0.135-0.154-0.158-0.481
		c-0.024-0.327-0.479-1.38-0.195-1.548c2.443-1.452,2.476-3.839,2.578-4.134C18.881,13.133,22.144,13.35,22.392,13.373z
		 M16.879,15.005c-0.437,0.772-0.84,0.884-1.007,0.854c-0.167-0.03-0.486-1.033-0.34-1.291c0.146-0.257,0.342,0.181,0.567,0.452
		c0.225,0.271,0.371,0.015,0.344-0.354s-0.605-0.675-0.396-0.917c0.19-0.22,0.941-0.068,1.317,0.027
		C17.742,13.875,17.316,14.233,16.879,15.005z M11.771,8.634c0.476-0.24,1.247-0.378,1.533-0.399
		c0.286-0.021,0.26,0.188,0.194,0.973c-0.066,0.786-0.413,1.675-0.118,1.776c0.295,0.103,0.42,0.134,0.592-0.906
		c0.172-1.04,0.419-1.593,0.665-1.61c0.245-0.018,0.844,0.309,1.11,0.577c0.266,0.268,0.69,0.443,0.296,0.678
		c-0.394,0.235-0.958,0.398-1.372,0.922c-0.414,0.523-0.428,0.895-0.799,0.88c-0.371-0.014-0.649-0.446-0.964-0.259
		C12.907,11.266,11.295,8.875,11.771,8.634z M12.66,16.915c-0.149-0.358,0.007-1.027,0.249-1.662
		c0.242-0.634,0.539-1.643,0.215-1.578c-0.324,0.065-0.8,0.881-0.866,1.667c-0.066,0.785-0.247,1.703-0.416,1.633
		c-0.17-0.069-1.932-0.559-2.547-2.24c-0.615-1.682-0.482-2.679,0.058-3.745c0.539-1.066,1.043-2.049,1.663-1.438
		c0.62,0.613,1.621,1.938,1.314,2.248c-0.307,0.31-0.555,0.287-0.984,0.03c-0.429-0.257-1.579-0.79-1.841-0.441
		c-0.263,0.348-0.394,0.81,0.392,0.875c0.786,0.066,2.194,0.211,1.967,0.475c-0.228,0.263-0.814,0.676-1.167,0.906
		c-0.354,0.231-1.019,0.691-0.791,1.003s0.453,0.584,0.835,0.187c0.382-0.397,1.07-1.681,1.526-1.632
		c0.456,0.049,0.678,0.279,0.964,0.259c0.287-0.021,0.756-0.343,0.756-0.343l0.693,3.321C14.681,16.439,12.81,17.273,12.66,16.915z
		 M14.246,12.154c0.032-0.126,0.417-0.482,1.033-1.062c0.616-0.58,1.016-0.731,1.255-0.831c0.479-0.199,0.864,1.705,0.847,2.035
		s-0.447,0.073-0.94,0.068c-0.494-0.006-1.391,0.101-1.799,0.13C14.232,12.525,14.215,12.279,14.246,12.154z M27.484,23.485
		c-0.11,2.434,0.382,9.797,0.782,12.48c0.4,2.685-2.045,2.409-3.932,2.465c-1.888,0.055-6.149-0.336-7.158-0.633
		c-1.008-0.297,0.221-6.593,0.286-8.529c0.065-1.938-0.547-8.101-0.547-8.101s0,0,0.281-0.103c0.28-0.103,0.276-0.719,1.044-1.474
		c0.767-0.755,1.042-0.363,2.2,0.293c1.158,0.655,1.836-0.175,1.836-0.175s0.058,1.353,0.192,2.083s0.465,0.747,0.912,0.674
		c0.446-0.073,0.17-2.19,0.117-2.927c-0.055-0.736,0.595-0.29,0.864,0.02s0.047,0.654-0.167,2.231
		c-0.214,1.577-0.278,3.516-0.665,6.708c-0.385,3.193-1.598,8.009-1.444,8.408c0.151,0.4,1.192,0.571,1.36,0.066
		c0.169-0.507,2.433-16.908,2.433-16.908c0.146-0.258,0.368-0.027,0.612-0.045c0.245-0.018,0.61-0.66,1.083-0.941
		C28.048,18.799,27.595,21.052,27.484,23.485z M28.41,13.593c-0.055,0.374-0.384,1.508-0.371,2.247
		c0.012,0.739-0.112,1.857-0.112,1.857s-0.795-0.188-1.259,0.215c-0.465,0.404-0.61,0.661-0.627,0.416
		c-0.019-0.245,0.223-1.455,0.408-2.291c0.187-0.836,0.507-2.092,0.507-2.092c0.058-0.333-0.095-0.733,0.448-0.608
		S28.465,13.219,28.41,13.593z M32.082,6.956c0,0,0.041-0.022,0.104-0.05C32.151,6.921,32.12,6.931,32.082,6.956z M32.885,7.842
		c-0.271,0.226-0.298-0.143-0.231-0.354c0.057-0.178,0.025-0.693-0.34-0.629c0.197-0.061,0.47-0.094,0.631,0.114
		C33.217,7.325,33.156,7.617,32.885,7.842z"/>
</g>
<g>
</g>
<g>
</g>
<g>
</g>
<g>
</g>
<g>
</g>
<g>
</g>
<g>
</g>
<g>
</g>
<g>
</g>
<g>
</g>
<g>
</g>
<g>
</g>
<g>
</g>
<g>
</g>
<g>
</g>
</svg>
