<?xml version="1.0" encoding="iso-8859-1"?>
<!-- Generator: Adobe Illustrator 16.0.0, SVG Export Plug-In . SVG Version: 6.00 Build 0)  -->
<!DOCTYPE svg PUBLIC "-//W3C//DTD SVG 1.1//EN" "http://www.w3.org/Graphics/SVG/1.1/DTD/svg11.dtd">
<svg version="1.1" id="Capa_1" xmlns="http://www.w3.org/2000/svg" xmlns:xlink="http://www.w3.org/1999/xlink" x="0px" y="0px"
	 width="43.132px" height="43.131px" viewBox="0 0 43.132 43.131" style="enable-background:new 0 0 43.132 43.131;"
	 xml:space="preserve">
<g>
	<path d="M16.67,14.417c0.434,0.055,0.562-0.125,0.625-1.209c0.062-1.083,0.5-2.625-0.042-2.791
		c-0.542-0.167-0.604,0.312-0.833,1.646C16.191,13.396,16.004,14.333,16.67,14.417z M18.441,21.021
		c0.562,0.459,0.896,0.646,1.146,0.312c0.25-0.333-0.354-1.021-0.917-1.521s-0.686-0.592-0.958-0.333
		C17.295,19.875,17.879,20.563,18.441,21.021z M18.65,18.396c0.042,0.542,1.083,0.5,2.312,0.375s2.896-0.375,3.167-0.688
		c0.271-0.312-0.021-1-0.479-1s-1.5,0.084-2.75,0.229C19.65,17.457,18.616,17.958,18.65,18.396z M15.858,19.583
		c-0.396,0.042-0.458,0.459-0.479,0.917s0.146,1.062,0.562,1.021c0.417-0.041,0.708-0.354,0.667-0.833
		C16.566,20.208,16.314,19.536,15.858,19.583z M19.733,15.355c0.604-0.771,1.5-1.709,2-2.062s0.604-0.75,0.312-1.084
		c-0.292-0.333-0.875-0.021-1.854,1.021c-0.979,1.041-2.333,2.104-1.792,2.604C18.638,16.055,19.129,16.125,19.733,15.355z
		 M14.691,18.125c0.583,0.75,1.625,0.542,2.375-0.167c0.75-0.708,0.917-1.458,0.333-1.875C16.816,15.667,15.482,16,15.482,16
		C14.816,16.333,14.108,17.375,14.691,18.125z M13.233,14.855c1.042,0.979,1.174,1.158,1.438,0.875
		c0.562-0.604-0.979-1.646-1.583-2.312c-0.604-0.667-1.062-1.167-1.396-0.688C11.358,13.208,12.191,13.875,13.233,14.855z
		 M43.045,9.292c0.375-3.125-0.562-6.625-0.938-7.812c-0.376-1.188-1-0.625-1.5-0.188c-0.5,0.438-0.75,0.125-2.688,0.562
		c-1.938,0.437-4.438,1.438-7.938,3.375c-3.5,1.937-4.938,5.375-4.938,5.562c0,0.188-0.688,0-2.188-1.562
		c-1.5-1.562-3-1.438-7.438-1.312s-8.562,3.188-10.75,6.688s0.312,7.438,0.312,7.438s-2.438-0.062-3.938,0.312
		s-0.938,5.438-0.938,7.812s2.312,2.688,3.125,3.188s0.875,4.188,1.438,6.812s5.875,2.125,13.375,2.188
		c7.5,0.062,14-0.25,17.438-1.25c3.438-1,2.25-7.125,2.25-7.812c0-0.687,1.375-0.562,2.75-0.812s1.125-1.188,1.125-2.812
		s0.125-6.75,0-7.75s-2.062-0.875-2.938-0.812c-0.876,0.062,0.312-1.625,1.312-3S42.67,12.417,43.045,9.292z M6.441,15.5
		c1.042-1.917,3.75-3.917,5.917-4.833c2.167-0.917,6.833-0.875,8.5-0.334c1.667,0.542,4.417,3.667,4.625,5.292
		s0.5,3.542,0.125,4.333c-0.375,0.792-0.583,1.959-0.875,2c-0.292,0.042-9.375,0.417-10.875,0.459
		c-2.792,0.077-3.417,0.125-4.917,0.083s-1.833-0.125-2.292-0.917C6.191,20.792,5.4,17.417,6.441,15.5z M35.108,38.886
		c-0.875,1.125-3.345,2.03-9.781,1.969c-6.437-0.062-8.719-0.281-12-0.281c-3.281,0-5.75-0.469-6.562-1.062
		c-0.812-0.594-1.25-3.406-1.469-4.188c-0.248-0.886-0.656-1.469-0.156-1.625s5.125-0.094,7.875,0s4.875,0.531,9.719,0.25
		c4.844-0.281,6.094-0.125,8.907-0.375c2.812-0.25,4.155-0.5,4.155,0.375S35.983,37.761,35.108,38.886z M38.483,22.449
		c0.875,0.031,1.344,0,1.405,1c0.062,1,0.125,3.219,0.22,4.969c0.094,1.75-0.095,2.5-0.938,2.595
		c-0.844,0.094-11.5,0.969-15.812,1.28c-4.312,0.312-7.845-0.655-10.656-0.5c-2.812,0.156-6.094,0.219-7.938,0.156
		c-1.844-0.062-2.969-0.969-2.969-2.031c0-1.062,0.125-4.25,0.125-4.25c0.031-1.062,0.062-2.062,1.531-1.969
		c1.469,0.093,8.438,0.5,13.344,0.25c4.906-0.25,11.438-1,15.219-1.344C35.795,22.261,37.608,22.417,38.483,22.449z M36.775,20.333
		C36.567,20.708,36.192,21,35.858,21c-0.333,0-4.75,0.292-5.458,0.333c-0.708,0.042-1.042,0.042-1.042,0.042
		s0.583-1.167,0.958-2.292s0.75-2.083,0.958-1.875c0.208,0.209,1.917,1.167,2.917,1.167s2.083-0.333,2.042-0.917
		c-0.042-0.583-1.083,0-2.042-0.333S31.274,16.542,31.649,16s1.625-3.417,2.083-3.25s2.042,0.292,3.042,0.208
		c1-0.083,1.833-0.458,1.583-0.833s-1.625-0.5-2.5-0.583c-0.875-0.084-1.792,0.041-1.417-0.375c0.375-0.417,1.833-2.667,2.417-3.542
		C37.44,6.75,37.94,6.542,37.565,6.25s-0.917,0.5-1.542,1.458c-0.625,0.959-1.625,2.375-1.792,2.292s-0.292-1.125,0.167-2.083
		c0.458-0.959,0.792-1.125,0.625-1.25s-1.583,1.5-1.792,2.583c-0.208,1.083,0.083,2.292-0.083,2.792c-0.167,0.5-1,2.083-1.417,2.708
		s-0.75,1-0.875,0.917c-0.125-0.084-0.625-0.625-0.625-1.834c0-1.208,0.125-2.708-0.333-2.791c-0.458-0.084-0.833,2.458-0.542,3.708
		c0.292,1.25,0.583,1.583,0.833,1.833s-0.083,0.792-0.167,1c-0.083,0.209-1.083,3.875-1.333,3.917s-0.833,0.042-0.833,0.042
		c-0.542-0.042-1.25,0.416-0.833-0.792s1-3.125,0.542-4.625s-1.542-3.208-1.333-3.875c0.208-0.667,1.333-3.292,3.167-4.625
		c1.833-1.333,4.917-2.75,6-3.083c1.083-0.334,2.458-0.584,3-0.709s1.917-0.25,2.167,0.375s1.375,6.042-0.417,9.875
		C38.358,17.917,36.983,19.958,36.775,20.333z M11.42,21.146c0.667-0.438,1.354-0.854,2.312-1.562s0.747-0.838,0.542-1.166
		c-0.417-0.667-2.042,0.791-2.812,1.375c-0.771,0.583-1.125,0.875-1.125,1.354C10.337,21.625,10.754,21.583,11.42,21.146z"/>
</g>
<g>
</g>
<g>
</g>
<g>
</g>
<g>
</g>
<g>
</g>
<g>
</g>
<g>
</g>
<g>
</g>
<g>
</g>
<g>
</g>
<g>
</g>
<g>
</g>
<g>
</g>
<g>
</g>
<g>
</g>
</svg>
